<svg width="138" height="29" viewBox="0 0 138 29" fill="none" xmlns="http://www.w3.org/2000/svg">
<g clip-path="url(#clip0_632_8074)">
<path d="M40.3642 5.8835C42.1627 5.8835 43.657 6.3345 44.8468 7.2365C46.0367 8.1385 46.8391 9.36165 47.2542 10.906H44.7431C44.3972 10.0313 43.8437 9.34115 43.0828 8.8355C42.3357 8.31615 41.4156 8.0565 40.3226 8.0565C39.451 8.0565 38.6693 8.26835 37.9775 8.692C37.2996 9.11565 36.76 9.72385 36.3588 10.5165C35.9714 11.2955 35.7777 12.2111 35.7777 13.2635C35.7777 14.3021 35.9714 15.2178 36.3588 16.0105C36.76 16.7895 37.2996 17.3909 37.9775 17.8145C38.6693 18.2381 39.451 18.45 40.3226 18.45C41.4156 18.45 42.3357 18.1971 43.0828 17.6915C43.8437 17.1721 44.3972 16.482 44.7431 15.621H47.2542C46.8391 17.1653 46.0367 18.3885 44.8468 19.2905C43.657 20.1789 42.1627 20.623 40.3642 20.623C38.9806 20.623 37.7562 20.3155 36.6909 19.7005C35.6255 19.0718 34.8023 18.204 34.2212 17.097C33.6402 15.9763 33.3496 14.6985 33.3496 13.2635C33.3496 11.8285 33.6402 10.5575 34.2212 9.4505C34.8023 8.32985 35.6255 7.45515 36.6909 6.8265C37.7562 6.19785 38.9806 5.8835 40.3642 5.8835ZM54.8442 9.061C55.9512 9.061 56.9474 9.29335 57.8327 9.758C58.7185 10.2226 59.4099 10.8923 59.908 11.767C60.4061 12.6416 60.6551 13.6666 60.6551 14.842C60.6551 16.031 60.4061 17.0628 59.908 17.9375C59.4099 18.8121 58.7185 19.4818 57.8327 19.9465C56.9474 20.4111 55.9512 20.6435 54.8442 20.6435C53.7377 20.6435 52.7416 20.4111 51.8558 19.9465C50.9842 19.4818 50.2926 18.8121 49.7807 17.9375C49.2826 17.0491 49.0336 16.0173 49.0336 14.842C49.0336 13.6666 49.2826 12.6416 49.7807 11.767C50.2926 10.8923 50.9842 10.2226 51.8558 9.758C52.7416 9.29335 53.7377 9.061 54.8442 9.061ZM54.8442 11.0905C54.2358 11.0905 53.6755 11.2271 53.1632 11.5005C52.6515 11.7738 52.2364 12.1975 51.9181 12.7715C51.6138 13.3318 51.4615 14.022 51.4615 14.842C51.4615 15.6756 51.6138 16.3726 51.9181 16.933C52.2364 17.4934 52.6515 17.9101 53.1632 18.1835C53.6755 18.4568 54.2358 18.5935 54.8442 18.5935C55.4532 18.5935 56.0135 18.4568 56.5252 18.1835C57.0375 17.9101 57.4455 17.4934 57.7497 16.933C58.0681 16.3726 58.227 15.6756 58.227 14.842C58.227 14.022 58.0681 13.3318 57.7497 12.7715C57.4455 12.1975 57.0375 11.7738 56.5252 11.5005C56.0135 11.2271 55.4532 11.0905 54.8442 11.0905ZM77.2287 9.02C78.5848 9.02 79.6639 9.44365 80.4662 10.291C81.2827 11.1383 81.6906 12.3478 81.6906 13.9195V20.5H79.3248V14.1655C79.3248 13.1815 79.0757 12.423 78.5777 11.89C78.0796 11.3433 77.3947 11.07 76.5231 11.07C75.5963 11.07 74.8558 11.3638 74.3025 11.9515C73.763 12.5255 73.4932 13.3728 73.4932 14.4935V20.5H71.1273V14.1655C71.1273 13.1815 70.8783 12.423 70.3802 11.89C69.8821 11.3433 69.1973 11.07 68.3256 11.07C67.3988 11.07 66.6583 11.3638 66.1051 11.9515C65.5655 12.5255 65.2957 13.3728 65.2957 14.4935V20.5H62.9298V9.2045H65.2957V11.562C65.5862 10.742 66.0706 10.1133 66.7484 9.676C67.4262 9.23865 68.2219 9.02 69.135 9.02C70.0897 9.02 70.9127 9.25235 71.6046 9.717C72.3102 10.1816 72.822 10.8513 73.1404 11.726C73.4724 10.8786 74.0049 10.2158 74.7384 9.7375C75.4718 9.25915 76.3019 9.02 77.2287 9.02ZM91.0113 9.061C92.0074 9.061 92.8927 9.29335 93.6677 9.758C94.4563 10.2226 95.0718 10.8923 95.5147 11.767C95.9571 12.6416 96.1788 13.6666 96.1788 14.842C96.1788 16.031 95.9571 17.0628 95.5147 17.9375C95.0718 18.8121 94.4563 19.4818 93.6677 19.9465C92.8927 20.4111 92.0074 20.6435 91.0113 20.6435C89.9736 20.6435 89.0878 20.3906 88.3549 19.885C87.6215 19.3793 87.1097 18.7096 86.8192 17.876V25.871H84.4533V9.2045H86.8192V11.8285C87.1097 10.9948 87.6215 10.3251 88.3549 9.8195C89.0878 9.31385 89.9736 9.061 91.0113 9.061ZM90.2849 11.111C89.6208 11.111 89.0256 11.2681 88.5002 11.5825C87.9743 11.8831 87.5592 12.3205 87.255 12.8945C86.9503 13.4548 86.7984 14.104 86.7984 14.842C86.7984 15.5936 86.9503 16.2496 87.255 16.81C87.5592 17.3703 87.9743 17.8076 88.5002 18.122C89.0256 18.4226 89.6208 18.573 90.2849 18.573C91.3363 18.573 92.18 18.245 92.8168 17.589C93.4531 16.9193 93.7715 16.0036 93.7715 14.842C93.7715 13.694 93.4531 12.7851 92.8168 12.1155C92.18 11.4458 91.3363 11.111 90.2849 11.111ZM103.044 9.061C104.082 9.061 104.967 9.31385 105.7 9.8195C106.433 10.3251 106.952 10.9948 107.257 11.8285V9.2045H109.623V20.5H107.257V17.876C106.952 18.7096 106.433 19.3793 105.7 19.885C104.967 20.3906 104.082 20.6435 103.044 20.6435C102.048 20.6435 101.156 20.4111 100.367 19.9465C99.5919 19.4818 98.983 18.8121 98.5406 17.9375C98.0977 17.0628 97.8765 16.031 97.8765 14.842C97.8765 13.6666 98.0977 12.6416 98.5406 11.767C98.983 10.8923 99.5919 10.2226 100.367 9.758C101.156 9.29335 102.048 9.061 103.044 9.061ZM103.77 11.111C102.719 11.111 101.875 11.4458 101.239 12.1155C100.616 12.7715 100.305 13.6803 100.305 14.842C100.305 16.0036 100.616 16.9193 101.239 17.589C101.875 18.245 102.719 18.573 103.77 18.573C104.434 18.573 105.029 18.4226 105.555 18.122C106.081 17.8076 106.496 17.3703 106.8 16.81C107.105 16.2496 107.257 15.5936 107.257 14.842C107.257 14.104 107.105 13.4548 106.8 12.8945C106.496 12.3205 106.081 11.8831 105.555 11.5825C105.029 11.2681 104.434 11.111 103.77 11.111ZM118.854 9.02C120.182 9.02 121.247 9.44365 122.05 10.291C122.852 11.1383 123.254 12.3478 123.254 13.9195V20.5H120.888V14.1655C120.888 13.1541 120.624 12.3751 120.099 11.8285C119.573 11.2681 118.854 10.988 117.941 10.988C117 10.988 116.246 11.2886 115.679 11.89C115.111 12.4776 114.828 13.3455 114.828 14.4935V20.5H112.462V9.2045H114.828V11.685C115.132 10.8376 115.644 10.1816 116.363 9.717C117.083 9.25235 117.913 9.02 118.854 9.02ZM127.369 9.2045L130.793 17.507L133.969 9.2045H136.604L129.694 25.871H127.058L129.528 20.2335L124.713 9.2045H127.369Z" fill="white"/>
<path d="M27.6279 21.3294C26.2605 23.8593 24.1643 25.9317 21.6045 27.2847C19.0447 28.6378 16.1362 29.2106 13.2468 28.9308C10.3575 28.651 7.61694 27.5311 5.37186 25.7128C3.12681 23.8945 1.47802 21.4593 0.634002 18.7154C-0.210019 15.9714 -0.21136 13.0418 0.63015 10.2971C1.47166 7.55244 3.11822 5.11584 5.36164 3.2955C7.60499 1.47516 10.3445 0.352839 13.2336 0.0704527C16.1227 -0.211934 19.0317 0.358298 21.5928 1.70904L19.8545 4.92496C17.9374 3.91382 15.7597 3.48696 13.597 3.69834C11.4343 3.90973 9.38358 4.74988 7.7042 6.11254C6.02482 7.47519 4.79227 9.29919 4.16233 11.3538C3.5324 13.4084 3.5334 15.6015 4.16522 17.6555C4.79703 19.7096 6.0313 21.5325 7.7119 22.8936C9.39249 24.2548 11.444 25.0931 13.6069 25.3026C15.7698 25.512 17.9471 25.0832 19.8633 24.0704C21.7795 23.0575 23.3486 21.5061 24.3723 19.6124L27.6279 21.3294Z" fill="white"/>
<path d="M15.4384 22C19.4919 22 22.7779 18.7541 22.7779 14.75C22.7779 10.7459 19.4919 7.5 15.4384 7.5C11.3849 7.5 8.09888 10.7459 8.09888 14.75C8.09888 18.7541 11.3849 22 15.4384 22Z" fill="#FF2B78"/>
</g>
<defs>
<clipPath id="clip0_632_8074">
<rect width="137.679" height="29" fill="white"/>
</clipPath>
</defs>
</svg>
