<svg width="1195" height="327" viewBox="0 0 1195 327" fill="none" xmlns="http://www.w3.org/2000/svg">
<path d="M3.486 284.168C2.58067 284.168 1.876 283.767 1.372 282.964C0.868 282.161 0.616 281.009 0.616 279.506C0.616 278.003 0.868 276.86 1.372 276.076C1.876 275.292 2.58067 274.9 3.486 274.9C4.382 274.9 5.082 275.292 5.586 276.076C6.09 276.86 6.342 278.003 6.342 279.506C6.342 281.009 6.09 282.161 5.586 282.964C5.082 283.767 4.382 284.168 3.486 284.168ZM3.486 283.244C3.74733 283.244 3.98067 283.174 4.186 283.034C4.40067 282.885 4.58267 282.661 4.732 282.362C4.89067 282.054 5.012 281.667 5.096 281.2C5.18 280.724 5.222 280.159 5.222 279.506C5.222 278.853 5.18 278.293 5.096 277.826C5.012 277.359 4.89067 276.981 4.732 276.692C4.58267 276.393 4.40067 276.174 4.186 276.034C3.98067 275.894 3.74733 275.824 3.486 275.824C3.22467 275.824 2.98667 275.894 2.772 276.034C2.55733 276.174 2.37067 276.393 2.212 276.692C2.06267 276.981 1.946 277.359 1.862 277.826C1.778 278.293 1.736 278.853 1.736 279.506C1.736 280.813 1.89467 281.765 2.212 282.362C2.53867 282.95 2.96333 283.244 3.486 283.244Z" fill="#9A9A9A"/>
<path d="M1.106 238.048H3.15V231.468H1.526V230.726C1.93667 230.651 2.29133 230.563 2.59 230.46C2.898 230.348 3.17333 230.217 3.416 230.068H4.298V238.048H6.146V239H1.106V238.048ZM7.61698 240.708C8.00898 240.531 8.31698 240.297 8.54098 240.008C8.76498 239.719 8.87698 239.383 8.87698 239C8.84898 239.009 8.80232 239.014 8.73698 239.014C8.51298 239.014 8.31698 238.949 8.14898 238.818C7.99032 238.678 7.91098 238.477 7.91098 238.216C7.91098 237.964 7.99498 237.768 8.16298 237.628C8.33098 237.479 8.53165 237.404 8.76498 237.404C9.06365 237.404 9.29698 237.525 9.46498 237.768C9.64232 238.011 9.73098 238.342 9.73098 238.762C9.73098 239.369 9.56765 239.896 9.24098 240.344C8.91432 240.792 8.46632 241.137 7.89698 241.38L7.61698 240.708ZM13.9313 239.168C13.026 239.168 12.3213 238.767 11.8173 237.964C11.3133 237.161 11.0613 236.009 11.0613 234.506C11.0613 233.003 11.3133 231.86 11.8173 231.076C12.3213 230.292 13.026 229.9 13.9313 229.9C14.8273 229.9 15.5273 230.292 16.0313 231.076C16.5353 231.86 16.7873 233.003 16.7873 234.506C16.7873 236.009 16.5353 237.161 16.0313 237.964C15.5273 238.767 14.8273 239.168 13.9313 239.168ZM13.9313 238.244C14.1926 238.244 14.426 238.174 14.6313 238.034C14.846 237.885 15.028 237.661 15.1773 237.362C15.336 237.054 15.4573 236.667 15.5413 236.2C15.6253 235.724 15.6673 235.159 15.6673 234.506C15.6673 233.853 15.6253 233.293 15.5413 232.826C15.4573 232.359 15.336 231.981 15.1773 231.692C15.028 231.393 14.846 231.174 14.6313 231.034C14.426 230.894 14.1926 230.824 13.9313 230.824C13.67 230.824 13.432 230.894 13.2173 231.034C13.0026 231.174 12.816 231.393 12.6573 231.692C12.508 231.981 12.3913 232.359 12.3073 232.826C12.2233 233.293 12.1813 233.853 12.1813 234.506C12.1813 235.813 12.34 236.765 12.6573 237.362C12.984 237.95 13.4086 238.244 13.9313 238.244ZM20.8903 239.168C19.985 239.168 19.2803 238.767 18.7763 237.964C18.2723 237.161 18.0203 236.009 18.0203 234.506C18.0203 233.003 18.2723 231.86 18.7763 231.076C19.2803 230.292 19.985 229.9 20.8903 229.9C21.7863 229.9 22.4863 230.292 22.9903 231.076C23.4943 231.86 23.7463 233.003 23.7463 234.506C23.7463 236.009 23.4943 237.161 22.9903 237.964C22.4863 238.767 21.7863 239.168 20.8903 239.168ZM20.8903 238.244C21.1516 238.244 21.385 238.174 21.5903 238.034C21.805 237.885 21.987 237.661 22.1363 237.362C22.295 237.054 22.4163 236.667 22.5003 236.2C22.5843 235.724 22.6263 235.159 22.6263 234.506C22.6263 233.853 22.5843 233.293 22.5003 232.826C22.4163 232.359 22.295 231.981 22.1363 231.692C21.987 231.393 21.805 231.174 21.5903 231.034C21.385 230.894 21.1516 230.824 20.8903 230.824C20.629 230.824 20.391 230.894 20.1763 231.034C19.9616 231.174 19.775 231.393 19.6163 231.692C19.467 231.981 19.3503 232.359 19.2663 232.826C19.1823 233.293 19.1403 233.853 19.1403 234.506C19.1403 235.813 19.299 236.765 19.6163 237.362C19.943 237.95 20.3676 238.244 20.8903 238.244ZM27.8493 239.168C26.9439 239.168 26.2393 238.767 25.7353 237.964C25.2313 237.161 24.9793 236.009 24.9793 234.506C24.9793 233.003 25.2313 231.86 25.7353 231.076C26.2393 230.292 26.9439 229.9 27.8493 229.9C28.7453 229.9 29.4453 230.292 29.9493 231.076C30.4533 231.86 30.7053 233.003 30.7053 234.506C30.7053 236.009 30.4533 237.161 29.9493 237.964C29.4453 238.767 28.7453 239.168 27.8493 239.168ZM27.8493 238.244C28.1106 238.244 28.3439 238.174 28.5493 238.034C28.7639 237.885 28.9459 237.661 29.0953 237.362C29.2539 237.054 29.3753 236.667 29.4593 236.2C29.5433 235.724 29.5853 235.159 29.5853 234.506C29.5853 233.853 29.5433 233.293 29.4593 232.826C29.3753 232.359 29.2539 231.981 29.0953 231.692C28.9459 231.393 28.7639 231.174 28.5493 231.034C28.3439 230.894 28.1106 230.824 27.8493 230.824C27.5879 230.824 27.3499 230.894 27.1353 231.034C26.9206 231.174 26.7339 231.393 26.5753 231.692C26.4259 231.981 26.3093 232.359 26.2253 232.826C26.1413 233.293 26.0993 233.853 26.0993 234.506C26.0993 235.813 26.2579 236.765 26.5753 237.362C26.9019 237.95 27.3266 238.244 27.8493 238.244Z" fill="#9A9A9A"/>
<path d="M53.968 319.168C52.82 319.168 51.9753 318.678 51.434 317.698L52.274 317.11C52.4793 317.474 52.7127 317.74 52.974 317.908C53.2353 318.067 53.5293 318.146 53.856 318.146C54.3507 318.146 54.7193 317.997 54.962 317.698C55.2047 317.39 55.326 316.886 55.326 316.186V309.816H56.502V316.298C56.502 316.69 56.4507 317.063 56.348 317.418C56.2547 317.763 56.1053 318.067 55.9 318.328C55.704 318.589 55.4427 318.795 55.116 318.944C54.7987 319.093 54.416 319.168 53.968 319.168ZM60.4426 319.168C59.8732 319.168 59.3972 319 59.0146 318.664C58.6412 318.328 58.4546 317.852 58.4546 317.236C58.4546 316.489 58.7859 315.92 59.4486 315.528C60.1112 315.127 61.1706 314.847 62.6266 314.688C62.6266 314.473 62.6032 314.263 62.5566 314.058C62.5192 313.853 62.4492 313.671 62.3466 313.512C62.2439 313.353 62.0992 313.227 61.9126 313.134C61.7352 313.031 61.5066 312.98 61.2266 312.98C60.8346 312.98 60.4659 313.055 60.1206 313.204C59.7752 313.353 59.4672 313.521 59.1966 313.708L58.7486 312.91C59.0659 312.705 59.4532 312.509 59.9106 312.322C60.3679 312.126 60.8719 312.028 61.4226 312.028C62.2532 312.028 62.8552 312.285 63.2286 312.798C63.6019 313.302 63.7886 313.979 63.7886 314.828V319H62.8366L62.7386 318.188H62.6966C62.3699 318.459 62.0199 318.692 61.6466 318.888C61.2732 319.075 60.8719 319.168 60.4426 319.168ZM60.7786 318.244C61.1052 318.244 61.4132 318.169 61.7026 318.02C61.9919 317.861 62.2999 317.633 62.6266 317.334V315.444C62.0572 315.519 61.5766 315.607 61.1846 315.71C60.8019 315.813 60.4892 315.934 60.2466 316.074C60.0132 316.214 59.8406 316.377 59.7286 316.564C59.6259 316.741 59.5746 316.937 59.5746 317.152C59.5746 317.544 59.6912 317.824 59.9246 317.992C60.1579 318.16 60.4426 318.244 60.7786 318.244ZM65.9293 312.196H66.8813L66.9793 313.176H67.0213C67.3479 312.849 67.6886 312.579 68.0433 312.364C68.4073 312.14 68.8273 312.028 69.3033 312.028C70.0219 312.028 70.5446 312.252 70.8713 312.7C71.2073 313.148 71.3753 313.811 71.3753 314.688V319H70.2273V314.842C70.2273 314.198 70.1246 313.736 69.9193 313.456C69.7139 313.167 69.3873 313.022 68.9393 313.022C68.5846 313.022 68.2719 313.111 68.0013 313.288C67.7306 313.465 67.4226 313.727 67.0773 314.072V319H65.9293V312.196Z" fill="#9A9A9A"/>
<path d="M153.26 309.816H158.552V310.796H154.422V313.904H157.922V314.884H154.422V319H153.26V309.816ZM162.633 319.168C162.175 319.168 161.746 319.089 161.345 318.93C160.953 318.762 160.607 318.529 160.309 318.23C160.019 317.922 159.791 317.549 159.623 317.11C159.455 316.671 159.371 316.172 159.371 315.612C159.371 315.052 159.455 314.553 159.623 314.114C159.8 313.666 160.029 313.288 160.309 312.98C160.598 312.672 160.925 312.439 161.289 312.28C161.653 312.112 162.031 312.028 162.423 312.028C162.852 312.028 163.235 312.103 163.571 312.252C163.916 312.401 164.201 312.616 164.425 312.896C164.658 313.176 164.835 313.512 164.957 313.904C165.078 314.296 165.139 314.735 165.139 315.22C165.139 315.341 165.134 315.463 165.125 315.584C165.125 315.696 165.115 315.794 165.097 315.878H160.505C160.551 316.606 160.775 317.185 161.177 317.614C161.587 318.034 162.119 318.244 162.773 318.244C163.099 318.244 163.398 318.197 163.669 318.104C163.949 318.001 164.215 317.871 164.467 317.712L164.873 318.468C164.574 318.655 164.243 318.818 163.879 318.958C163.515 319.098 163.099 319.168 162.633 319.168ZM164.131 315.052C164.131 314.361 163.981 313.839 163.683 313.484C163.393 313.12 162.983 312.938 162.451 312.938C162.208 312.938 161.975 312.985 161.751 313.078C161.536 313.171 161.34 313.311 161.163 313.498C160.985 313.675 160.836 313.895 160.715 314.156C160.603 314.417 160.528 314.716 160.491 315.052H164.131ZM169.83 319.168C169.513 319.168 169.181 319.093 168.836 318.944C168.5 318.785 168.183 318.571 167.884 318.3H167.842L167.744 319H166.82V309.032H167.968V311.748L167.94 312.98C168.248 312.709 168.584 312.485 168.948 312.308C169.312 312.121 169.685 312.028 170.068 312.028C170.507 312.028 170.894 312.112 171.23 312.28C171.566 312.439 171.846 312.672 172.07 312.98C172.303 313.279 172.476 313.643 172.588 314.072C172.709 314.492 172.77 314.963 172.77 315.486C172.77 316.065 172.691 316.583 172.532 317.04C172.373 317.497 172.159 317.885 171.888 318.202C171.617 318.519 171.305 318.762 170.95 318.93C170.595 319.089 170.222 319.168 169.83 319.168ZM169.634 318.202C169.914 318.202 170.171 318.141 170.404 318.02C170.647 317.889 170.852 317.712 171.02 317.488C171.197 317.255 171.333 316.97 171.426 316.634C171.529 316.298 171.58 315.92 171.58 315.5C171.58 315.127 171.547 314.786 171.482 314.478C171.417 314.17 171.309 313.909 171.16 313.694C171.02 313.47 170.833 313.297 170.6 313.176C170.376 313.055 170.105 312.994 169.788 312.994C169.237 312.994 168.631 313.302 167.968 313.918V317.488C168.267 317.749 168.561 317.936 168.85 318.048C169.149 318.151 169.41 318.202 169.634 318.202Z" fill="#9A9A9A"/>
<path d="M254.26 309.816H255.66L257.424 314.716C257.536 315.033 257.643 315.355 257.746 315.682C257.858 315.999 257.97 316.317 258.082 316.634H258.138C258.25 316.317 258.353 315.999 258.446 315.682C258.549 315.355 258.656 315.033 258.768 314.716L260.504 309.816H261.918V319H260.826V313.946C260.826 313.535 260.845 313.083 260.882 312.588C260.919 312.093 260.952 311.641 260.98 311.23H260.924L260.196 313.316L258.46 318.076H257.69L255.954 313.316L255.226 311.23H255.17C255.198 311.641 255.226 312.093 255.254 312.588C255.291 313.083 255.31 313.535 255.31 313.946V319H254.26V309.816ZM265.888 319.168C265.319 319.168 264.843 319 264.46 318.664C264.087 318.328 263.9 317.852 263.9 317.236C263.9 316.489 264.231 315.92 264.894 315.528C265.557 315.127 266.616 314.847 268.072 314.688C268.072 314.473 268.049 314.263 268.002 314.058C267.965 313.853 267.895 313.671 267.792 313.512C267.689 313.353 267.545 313.227 267.358 313.134C267.181 313.031 266.952 312.98 266.672 312.98C266.28 312.98 265.911 313.055 265.566 313.204C265.221 313.353 264.913 313.521 264.642 313.708L264.194 312.91C264.511 312.705 264.899 312.509 265.356 312.322C265.813 312.126 266.317 312.028 266.868 312.028C267.699 312.028 268.301 312.285 268.674 312.798C269.047 313.302 269.234 313.979 269.234 314.828V319H268.282L268.184 318.188H268.142C267.815 318.459 267.465 318.692 267.092 318.888C266.719 319.075 266.317 319.168 265.888 319.168ZM266.224 318.244C266.551 318.244 266.859 318.169 267.148 318.02C267.437 317.861 267.745 317.633 268.072 317.334V315.444C267.503 315.519 267.022 315.607 266.63 315.71C266.247 315.813 265.935 315.934 265.692 316.074C265.459 316.214 265.286 316.377 265.174 316.564C265.071 316.741 265.02 316.937 265.02 317.152C265.02 317.544 265.137 317.824 265.37 317.992C265.603 318.16 265.888 318.244 266.224 318.244ZM271.375 312.196H272.327L272.425 313.428H272.467C272.7 312.999 272.98 312.658 273.307 312.406C273.643 312.154 274.007 312.028 274.399 312.028C274.669 312.028 274.912 312.075 275.127 312.168L274.903 313.176C274.791 313.139 274.688 313.111 274.595 313.092C274.501 313.073 274.385 313.064 274.245 313.064C273.955 313.064 273.652 313.181 273.335 313.414C273.027 313.647 272.756 314.053 272.523 314.632V319H271.375V312.196Z" fill="#9A9A9A"/>
<path d="M359.166 315.262L358.732 313.862C358.564 313.349 358.405 312.84 358.256 312.336C358.107 311.823 357.957 311.3 357.808 310.768H357.752C357.612 311.3 357.467 311.823 357.318 312.336C357.169 312.84 357.01 313.349 356.842 313.862L356.408 315.262H359.166ZM359.46 316.2H356.114L355.232 319H354.042L357.15 309.816H358.466L361.574 319H360.328L359.46 316.2ZM362.763 312.196H363.715L363.813 312.98H363.855C364.163 312.719 364.499 312.495 364.863 312.308C365.237 312.121 365.624 312.028 366.025 312.028C366.464 312.028 366.851 312.112 367.187 312.28C367.523 312.439 367.803 312.672 368.027 312.98C368.251 313.279 368.419 313.643 368.531 314.072C368.653 314.492 368.713 314.968 368.713 315.5C368.713 316.079 368.634 316.597 368.475 317.054C368.317 317.502 368.102 317.885 367.831 318.202C367.561 318.519 367.248 318.762 366.893 318.93C366.539 319.089 366.165 319.168 365.773 319.168C365.456 319.168 365.139 319.098 364.821 318.958C364.513 318.818 364.201 318.627 363.883 318.384L363.911 319.574V321.87H362.763V312.196ZM365.577 318.202C365.857 318.202 366.114 318.141 366.347 318.02C366.59 317.889 366.795 317.712 366.963 317.488C367.141 317.255 367.276 316.97 367.369 316.634C367.472 316.298 367.523 315.92 367.523 315.5C367.523 315.127 367.491 314.786 367.425 314.478C367.36 314.17 367.253 313.909 367.103 313.694C366.963 313.47 366.777 313.297 366.543 313.176C366.319 313.055 366.049 312.994 365.731 312.994C365.442 312.994 365.148 313.073 364.849 313.232C364.56 313.391 364.247 313.619 363.911 313.918V317.488C364.219 317.749 364.518 317.936 364.807 318.048C365.097 318.151 365.353 318.202 365.577 318.202ZM370.529 312.196H371.481L371.579 313.428H371.621C371.854 312.999 372.134 312.658 372.461 312.406C372.797 312.154 373.161 312.028 373.553 312.028C373.824 312.028 374.066 312.075 374.281 312.168L374.057 313.176C373.945 313.139 373.842 313.111 373.749 313.092C373.656 313.073 373.539 313.064 373.399 313.064C373.11 313.064 372.806 313.181 372.489 313.414C372.181 313.647 371.91 314.053 371.677 314.632V319H370.529V312.196Z" fill="#9A9A9A"/>
<path d="M456.26 309.816H457.66L459.424 314.716C459.536 315.033 459.643 315.355 459.746 315.682C459.858 315.999 459.97 316.317 460.082 316.634H460.138C460.25 316.317 460.353 315.999 460.446 315.682C460.549 315.355 460.656 315.033 460.768 314.716L462.504 309.816H463.918V319H462.826V313.946C462.826 313.535 462.845 313.083 462.882 312.588C462.919 312.093 462.952 311.641 462.98 311.23H462.924L462.196 313.316L460.46 318.076H459.69L457.954 313.316L457.226 311.23H457.17C457.198 311.641 457.226 312.093 457.254 312.588C457.291 313.083 457.31 313.535 457.31 313.946V319H456.26V309.816ZM467.888 319.168C467.319 319.168 466.843 319 466.46 318.664C466.087 318.328 465.9 317.852 465.9 317.236C465.9 316.489 466.231 315.92 466.894 315.528C467.557 315.127 468.616 314.847 470.072 314.688C470.072 314.473 470.049 314.263 470.002 314.058C469.965 313.853 469.895 313.671 469.792 313.512C469.689 313.353 469.545 313.227 469.358 313.134C469.181 313.031 468.952 312.98 468.672 312.98C468.28 312.98 467.911 313.055 467.566 313.204C467.221 313.353 466.913 313.521 466.642 313.708L466.194 312.91C466.511 312.705 466.899 312.509 467.356 312.322C467.813 312.126 468.317 312.028 468.868 312.028C469.699 312.028 470.301 312.285 470.674 312.798C471.047 313.302 471.234 313.979 471.234 314.828V319H470.282L470.184 318.188H470.142C469.815 318.459 469.465 318.692 469.092 318.888C468.719 319.075 468.317 319.168 467.888 319.168ZM468.224 318.244C468.551 318.244 468.859 318.169 469.148 318.02C469.437 317.861 469.745 317.633 470.072 317.334V315.444C469.503 315.519 469.022 315.607 468.63 315.71C468.247 315.813 467.935 315.934 467.692 316.074C467.459 316.214 467.286 316.377 467.174 316.564C467.071 316.741 467.02 316.937 467.02 317.152C467.02 317.544 467.137 317.824 467.37 317.992C467.603 318.16 467.888 318.244 468.224 318.244ZM473.487 321.926C473.328 321.926 473.183 321.912 473.053 321.884C472.922 321.865 472.801 321.833 472.689 321.786L472.913 320.876C472.987 320.895 473.071 320.913 473.165 320.932C473.258 320.96 473.347 320.974 473.431 320.974C473.823 320.974 474.14 320.834 474.383 320.554C474.635 320.283 474.831 319.938 474.971 319.518L475.125 319.014L472.395 312.196H473.585L474.971 315.962C475.073 316.261 475.181 316.578 475.293 316.914C475.414 317.241 475.526 317.563 475.629 317.88H475.685C475.787 317.572 475.885 317.25 475.979 316.914C476.072 316.578 476.165 316.261 476.259 315.962L477.477 312.196H478.597L476.035 319.56C475.913 319.896 475.778 320.209 475.629 320.498C475.479 320.787 475.302 321.035 475.097 321.24C474.891 321.455 474.658 321.623 474.397 321.744C474.135 321.865 473.832 321.926 473.487 321.926Z" fill="#9A9A9A"/>
<path d="M558.968 319.168C557.82 319.168 556.975 318.678 556.434 317.698L557.274 317.11C557.479 317.474 557.713 317.74 557.974 317.908C558.235 318.067 558.529 318.146 558.856 318.146C559.351 318.146 559.719 317.997 559.962 317.698C560.205 317.39 560.326 316.886 560.326 316.186V309.816H561.502V316.298C561.502 316.69 561.451 317.063 561.348 317.418C561.255 317.763 561.105 318.067 560.9 318.328C560.704 318.589 560.443 318.795 560.116 318.944C559.799 319.093 559.416 319.168 558.968 319.168ZM565.863 319.168C565.135 319.168 564.603 318.944 564.267 318.496C563.94 318.048 563.777 317.385 563.777 316.508V312.196H564.939V316.354C564.939 316.998 565.037 317.465 565.233 317.754C565.438 318.034 565.765 318.174 566.213 318.174C566.567 318.174 566.88 318.085 567.151 317.908C567.421 317.721 567.72 317.427 568.047 317.026V312.196H569.195V319H568.243L568.145 317.936H568.103C567.785 318.309 567.449 318.608 567.095 318.832C566.749 319.056 566.339 319.168 565.863 319.168ZM571.49 312.196H572.442L572.54 313.176H572.582C572.908 312.849 573.249 312.579 573.604 312.364C573.968 312.14 574.388 312.028 574.864 312.028C575.582 312.028 576.105 312.252 576.432 312.7C576.768 313.148 576.936 313.811 576.936 314.688V319H575.788V314.842C575.788 314.198 575.685 313.736 575.48 313.456C575.274 313.167 574.948 313.022 574.5 313.022C574.145 313.022 573.832 313.111 573.562 313.288C573.291 313.465 572.983 313.727 572.638 314.072V319H571.49V312.196Z" fill="#9A9A9A"/>
<path d="M659.968 319.168C658.82 319.168 657.975 318.678 657.434 317.698L658.274 317.11C658.479 317.474 658.713 317.74 658.974 317.908C659.235 318.067 659.529 318.146 659.856 318.146C660.351 318.146 660.719 317.997 660.962 317.698C661.205 317.39 661.326 316.886 661.326 316.186V309.816H662.502V316.298C662.502 316.69 662.451 317.063 662.348 317.418C662.255 317.763 662.105 318.067 661.9 318.328C661.704 318.589 661.443 318.795 661.116 318.944C660.799 319.093 660.416 319.168 659.968 319.168ZM666.863 319.168C666.135 319.168 665.603 318.944 665.267 318.496C664.94 318.048 664.777 317.385 664.777 316.508V312.196H665.939V316.354C665.939 316.998 666.037 317.465 666.233 317.754C666.438 318.034 666.765 318.174 667.213 318.174C667.567 318.174 667.88 318.085 668.151 317.908C668.421 317.721 668.72 317.427 669.047 317.026V312.196H670.195V319H669.243L669.145 317.936H669.103C668.785 318.309 668.449 318.608 668.095 318.832C667.749 319.056 667.339 319.168 666.863 319.168ZM673.708 319.168C673.269 319.168 672.956 319.037 672.77 318.776C672.583 318.515 672.49 318.132 672.49 317.628V309.032H673.638V317.712C673.638 317.899 673.67 318.029 673.736 318.104C673.801 318.179 673.876 318.216 673.96 318.216C673.997 318.216 674.03 318.216 674.058 318.216C674.095 318.216 674.146 318.207 674.212 318.188L674.366 319.056C674.291 319.093 674.202 319.121 674.1 319.14C673.997 319.159 673.866 319.168 673.708 319.168Z" fill="#9A9A9A"/>
<path d="M763.166 315.262L762.732 313.862C762.564 313.349 762.405 312.84 762.256 312.336C762.107 311.823 761.957 311.3 761.808 310.768H761.752C761.612 311.3 761.467 311.823 761.318 312.336C761.169 312.84 761.01 313.349 760.842 313.862L760.408 315.262H763.166ZM763.46 316.2H760.114L759.232 319H758.042L761.15 309.816H762.466L765.574 319H764.328L763.46 316.2ZM768.669 319.168C767.941 319.168 767.409 318.944 767.073 318.496C766.747 318.048 766.583 317.385 766.583 316.508V312.196H767.745V316.354C767.745 316.998 767.843 317.465 768.039 317.754C768.245 318.034 768.571 318.174 769.019 318.174C769.374 318.174 769.687 318.085 769.957 317.908C770.228 317.721 770.527 317.427 770.853 317.026V312.196H772.001V319H771.049L770.951 317.936H770.909C770.592 318.309 770.256 318.608 769.901 318.832C769.556 319.056 769.145 319.168 768.669 319.168ZM776.592 322.136C776.172 322.136 775.79 322.094 775.444 322.01C775.099 321.935 774.8 321.819 774.548 321.66C774.306 321.501 774.114 321.31 773.974 321.086C773.844 320.862 773.778 320.601 773.778 320.302C773.778 320.013 773.867 319.737 774.044 319.476C774.222 319.215 774.464 318.977 774.772 318.762V318.706C774.604 318.603 774.46 318.463 774.338 318.286C774.226 318.099 774.17 317.871 774.17 317.6C774.17 317.311 774.25 317.059 774.408 316.844C774.567 316.629 774.735 316.461 774.912 316.34V316.284C774.688 316.097 774.483 315.85 774.296 315.542C774.119 315.225 774.03 314.861 774.03 314.45C774.03 314.077 774.096 313.741 774.226 313.442C774.366 313.143 774.553 312.891 774.786 312.686C775.02 312.471 775.29 312.308 775.598 312.196C775.916 312.084 776.247 312.028 776.592 312.028C776.779 312.028 776.952 312.047 777.11 312.084C777.278 312.112 777.428 312.149 777.558 312.196H779.924V313.078H778.524C778.683 313.237 778.814 313.437 778.916 313.68C779.028 313.923 779.084 314.189 779.084 314.478C779.084 314.842 779.019 315.173 778.888 315.472C778.758 315.761 778.58 316.009 778.356 316.214C778.132 316.41 777.866 316.564 777.558 316.676C777.26 316.788 776.938 316.844 776.592 316.844C776.424 316.844 776.252 316.825 776.074 316.788C775.897 316.741 775.729 316.681 775.57 316.606C775.449 316.709 775.346 316.825 775.262 316.956C775.178 317.077 775.136 317.231 775.136 317.418C775.136 317.633 775.22 317.81 775.388 317.95C775.556 318.09 775.874 318.16 776.34 318.16H777.656C778.45 318.16 779.042 318.291 779.434 318.552C779.836 318.804 780.036 319.215 780.036 319.784C780.036 320.101 779.957 320.4 779.798 320.68C779.64 320.969 779.411 321.221 779.112 321.436C778.814 321.651 778.45 321.819 778.02 321.94C777.6 322.071 777.124 322.136 776.592 322.136ZM776.592 316.074C776.788 316.074 776.97 316.037 777.138 315.962C777.316 315.887 777.47 315.78 777.6 315.64C777.74 315.5 777.848 315.332 777.922 315.136C777.997 314.931 778.034 314.702 778.034 314.45C778.034 313.946 777.894 313.559 777.614 313.288C777.334 313.008 776.994 312.868 776.592 312.868C776.191 312.868 775.85 313.008 775.57 313.288C775.29 313.559 775.15 313.946 775.15 314.45C775.15 314.702 775.188 314.931 775.262 315.136C775.337 315.332 775.44 315.5 775.57 315.64C775.71 315.78 775.864 315.887 776.032 315.962C776.21 316.037 776.396 316.074 776.592 316.074ZM776.76 321.338C777.087 321.338 777.381 321.296 777.642 321.212C777.913 321.137 778.142 321.035 778.328 320.904C778.515 320.783 778.66 320.638 778.762 320.47C778.865 320.302 778.916 320.129 778.916 319.952C778.916 319.635 778.8 319.415 778.566 319.294C778.333 319.173 777.992 319.112 777.544 319.112H776.368C776.238 319.112 776.093 319.103 775.934 319.084C775.785 319.075 775.636 319.047 775.486 319C775.244 319.177 775.066 319.364 774.954 319.56C774.842 319.756 774.786 319.952 774.786 320.148C774.786 320.512 774.959 320.801 775.304 321.016C775.659 321.231 776.144 321.338 776.76 321.338Z" fill="#9A9A9A"/>
<path d="M862.808 319.168C862.164 319.168 861.567 319.047 861.016 318.804C860.465 318.561 859.989 318.23 859.588 317.81L860.288 316.998C860.615 317.343 860.997 317.623 861.436 317.838C861.884 318.043 862.346 318.146 862.822 318.146C863.429 318.146 863.9 318.011 864.236 317.74C864.572 317.46 864.74 317.096 864.74 316.648C864.74 316.415 864.698 316.219 864.614 316.06C864.539 315.892 864.432 315.752 864.292 315.64C864.161 315.519 864.003 315.411 863.816 315.318C863.629 315.225 863.429 315.127 863.214 315.024L861.898 314.45C861.683 314.357 861.464 314.245 861.24 314.114C861.016 313.983 860.815 313.825 860.638 313.638C860.461 313.451 860.316 313.232 860.204 312.98C860.092 312.719 860.036 312.42 860.036 312.084C860.036 311.739 860.106 311.417 860.246 311.118C860.395 310.819 860.596 310.563 860.848 310.348C861.109 310.124 861.413 309.951 861.758 309.83C862.113 309.709 862.5 309.648 862.92 309.648C863.471 309.648 863.979 309.755 864.446 309.97C864.913 310.175 865.309 310.446 865.636 310.782L865.006 311.538C864.726 311.267 864.413 311.057 864.068 310.908C863.732 310.749 863.349 310.67 862.92 310.67C862.407 310.67 861.991 310.791 861.674 311.034C861.366 311.267 861.212 311.594 861.212 312.014C861.212 312.238 861.254 312.429 861.338 312.588C861.431 312.737 861.553 312.873 861.702 312.994C861.851 313.106 862.015 313.209 862.192 313.302C862.369 313.386 862.551 313.465 862.738 313.54L864.04 314.1C864.301 314.212 864.549 314.343 864.782 314.492C865.015 314.632 865.216 314.8 865.384 314.996C865.552 315.183 865.683 315.407 865.776 315.668C865.879 315.92 865.93 316.214 865.93 316.55C865.93 316.914 865.855 317.255 865.706 317.572C865.566 317.889 865.361 318.169 865.09 318.412C864.819 318.645 864.493 318.832 864.11 318.972C863.727 319.103 863.293 319.168 862.808 319.168ZM870.385 319.168C869.927 319.168 869.498 319.089 869.097 318.93C868.705 318.762 868.359 318.529 868.061 318.23C867.771 317.922 867.543 317.549 867.375 317.11C867.207 316.671 867.123 316.172 867.123 315.612C867.123 315.052 867.207 314.553 867.375 314.114C867.552 313.666 867.781 313.288 868.061 312.98C868.35 312.672 868.677 312.439 869.041 312.28C869.405 312.112 869.783 312.028 870.175 312.028C870.604 312.028 870.987 312.103 871.323 312.252C871.668 312.401 871.953 312.616 872.177 312.896C872.41 313.176 872.587 313.512 872.709 313.904C872.83 314.296 872.891 314.735 872.891 315.22C872.891 315.341 872.886 315.463 872.877 315.584C872.877 315.696 872.867 315.794 872.849 315.878H868.257C868.303 316.606 868.527 317.185 868.929 317.614C869.339 318.034 869.871 318.244 870.525 318.244C870.851 318.244 871.15 318.197 871.421 318.104C871.701 318.001 871.967 317.871 872.219 317.712L872.625 318.468C872.326 318.655 871.995 318.818 871.631 318.958C871.267 319.098 870.851 319.168 870.385 319.168ZM871.883 315.052C871.883 314.361 871.733 313.839 871.435 313.484C871.145 313.12 870.735 312.938 870.203 312.938C869.96 312.938 869.727 312.985 869.503 313.078C869.288 313.171 869.092 313.311 868.915 313.498C868.737 313.675 868.588 313.895 868.467 314.156C868.355 314.417 868.28 314.716 868.243 315.052H871.883ZM874.572 312.196H875.524L875.622 312.98H875.664C875.972 312.719 876.308 312.495 876.672 312.308C877.045 312.121 877.432 312.028 877.834 312.028C878.272 312.028 878.66 312.112 878.996 312.28C879.332 312.439 879.612 312.672 879.836 312.98C880.06 313.279 880.228 313.643 880.34 314.072C880.461 314.492 880.522 314.968 880.522 315.5C880.522 316.079 880.442 316.597 880.284 317.054C880.125 317.502 879.91 317.885 879.64 318.202C879.369 318.519 879.056 318.762 878.702 318.93C878.347 319.089 877.974 319.168 877.582 319.168C877.264 319.168 876.947 319.098 876.63 318.958C876.322 318.818 876.009 318.627 875.692 318.384L875.72 319.574V321.87H874.572V312.196ZM877.386 318.202C877.666 318.202 877.922 318.141 878.156 318.02C878.398 317.889 878.604 317.712 878.772 317.488C878.949 317.255 879.084 316.97 879.178 316.634C879.28 316.298 879.332 315.92 879.332 315.5C879.332 315.127 879.299 314.786 879.234 314.478C879.168 314.17 879.061 313.909 878.912 313.694C878.772 313.47 878.585 313.297 878.352 313.176C878.128 313.055 877.857 312.994 877.54 312.994C877.25 312.994 876.956 313.073 876.658 313.232C876.368 313.391 876.056 313.619 875.72 313.918V317.488C876.028 317.749 876.326 317.936 876.616 318.048C876.905 318.151 877.162 318.202 877.386 318.202Z" fill="#9A9A9A"/>
<path d="M964.648 319.168C964.069 319.168 963.537 319.056 963.052 318.832C962.576 318.608 962.165 318.291 961.82 317.88C961.475 317.46 961.204 316.956 961.008 316.368C960.821 315.771 960.728 315.103 960.728 314.366C960.728 313.629 960.821 312.971 961.008 312.392C961.204 311.804 961.475 311.309 961.82 310.908C962.165 310.497 962.576 310.185 963.052 309.97C963.537 309.755 964.069 309.648 964.648 309.648C965.227 309.648 965.754 309.76 966.23 309.984C966.715 310.199 967.131 310.511 967.476 310.922C967.831 311.323 968.101 311.818 968.288 312.406C968.484 312.985 968.582 313.638 968.582 314.366C968.582 315.103 968.484 315.771 968.288 316.368C968.101 316.956 967.831 317.46 967.476 317.88C967.131 318.291 966.715 318.608 966.23 318.832C965.754 319.056 965.227 319.168 964.648 319.168ZM964.648 318.146C965.059 318.146 965.427 318.057 965.754 317.88C966.09 317.703 966.375 317.451 966.608 317.124C966.851 316.788 967.037 316.391 967.168 315.934C967.299 315.467 967.364 314.945 967.364 314.366C967.364 313.797 967.299 313.283 967.168 312.826C967.037 312.369 966.851 311.981 966.608 311.664C966.375 311.347 966.09 311.104 965.754 310.936C965.427 310.759 965.059 310.67 964.648 310.67C964.237 310.67 963.864 310.759 963.528 310.936C963.201 311.104 962.917 311.347 962.674 311.664C962.441 311.981 962.259 312.369 962.128 312.826C961.997 313.283 961.932 313.797 961.932 314.366C961.932 314.945 961.997 315.467 962.128 315.934C962.259 316.391 962.441 316.788 962.674 317.124C962.917 317.451 963.201 317.703 963.528 317.88C963.864 318.057 964.237 318.146 964.648 318.146ZM973.133 319.168C972.685 319.168 972.265 319.089 971.873 318.93C971.481 318.771 971.14 318.543 970.851 318.244C970.571 317.936 970.347 317.563 970.179 317.124C970.02 316.676 969.941 316.172 969.941 315.612C969.941 315.043 970.03 314.539 970.207 314.1C970.384 313.652 970.622 313.274 970.921 312.966C971.22 312.658 971.565 312.425 971.957 312.266C972.358 312.107 972.778 312.028 973.217 312.028C973.665 312.028 974.048 312.107 974.365 312.266C974.682 312.425 974.962 312.611 975.205 312.826L974.617 313.582C974.421 313.405 974.211 313.26 973.987 313.148C973.772 313.036 973.53 312.98 973.259 312.98C972.951 312.98 972.666 313.045 972.405 313.176C972.144 313.297 971.92 313.475 971.733 313.708C971.546 313.941 971.397 314.221 971.285 314.548C971.182 314.865 971.131 315.22 971.131 315.612C971.131 316.004 971.182 316.359 971.285 316.676C971.388 316.993 971.528 317.269 971.705 317.502C971.892 317.726 972.116 317.903 972.377 318.034C972.638 318.155 972.923 318.216 973.231 318.216C973.548 318.216 973.838 318.151 974.099 318.02C974.37 317.88 974.612 317.717 974.827 317.53L975.331 318.3C975.023 318.571 974.682 318.785 974.309 318.944C973.936 319.093 973.544 319.168 973.133 319.168ZM978.835 319.168C978.471 319.168 978.163 319.112 977.911 319C977.668 318.888 977.468 318.734 977.309 318.538C977.16 318.342 977.052 318.104 976.987 317.824C976.922 317.544 976.889 317.236 976.889 316.9V313.134H975.881V312.266L976.945 312.196L977.085 310.292H978.051V312.196H979.885V313.134H978.051V316.914C978.051 317.334 978.126 317.661 978.275 317.894C978.434 318.118 978.709 318.23 979.101 318.23C979.222 318.23 979.353 318.211 979.493 318.174C979.633 318.137 979.759 318.095 979.871 318.048L980.095 318.916C979.908 318.981 979.703 319.037 979.479 319.084C979.264 319.14 979.05 319.168 978.835 319.168Z" fill="#9A9A9A"/>
<path d="M1062.26 309.816H1063.46L1066.78 315.584L1067.78 317.488H1067.83C1067.8 317.021 1067.77 316.541 1067.73 316.046C1067.71 315.542 1067.69 315.047 1067.69 314.562V309.816H1068.8V319H1067.59L1064.26 313.218L1063.27 311.328H1063.21C1063.25 311.795 1063.28 312.271 1063.31 312.756C1063.35 313.232 1063.37 313.713 1063.37 314.198V319H1062.26V309.816ZM1073.86 319.168C1073.44 319.168 1073.04 319.089 1072.65 318.93C1072.28 318.771 1071.95 318.543 1071.66 318.244C1071.37 317.936 1071.14 317.563 1070.96 317.124C1070.79 316.676 1070.71 316.172 1070.71 315.612C1070.71 315.043 1070.79 314.539 1070.96 314.1C1071.14 313.652 1071.37 313.274 1071.66 312.966C1071.95 312.658 1072.28 312.425 1072.65 312.266C1073.04 312.107 1073.44 312.028 1073.86 312.028C1074.28 312.028 1074.68 312.107 1075.05 312.266C1075.43 312.425 1075.77 312.658 1076.06 312.966C1076.35 313.274 1076.57 313.652 1076.74 314.1C1076.92 314.539 1077.01 315.043 1077.01 315.612C1077.01 316.172 1076.92 316.676 1076.74 317.124C1076.57 317.563 1076.35 317.936 1076.06 318.244C1075.77 318.543 1075.43 318.771 1075.05 318.93C1074.68 319.089 1074.28 319.168 1073.86 319.168ZM1073.86 318.216C1074.15 318.216 1074.41 318.155 1074.66 318.034C1074.9 317.903 1075.1 317.726 1075.27 317.502C1075.45 317.269 1075.59 316.993 1075.68 316.676C1075.77 316.359 1075.82 316.004 1075.82 315.612C1075.82 315.22 1075.77 314.865 1075.68 314.548C1075.59 314.221 1075.45 313.941 1075.27 313.708C1075.1 313.475 1074.9 313.297 1074.66 313.176C1074.41 313.045 1074.15 312.98 1073.86 312.98C1073.57 312.98 1073.3 313.045 1073.06 313.176C1072.82 313.297 1072.61 313.475 1072.43 313.708C1072.26 313.941 1072.13 314.221 1072.04 314.548C1071.95 314.865 1071.9 315.22 1071.9 315.612C1071.9 316.004 1071.95 316.359 1072.04 316.676C1072.13 316.993 1072.26 317.269 1072.43 317.502C1072.61 317.726 1072.82 317.903 1073.06 318.034C1073.3 318.155 1073.57 318.216 1073.86 318.216ZM1077.77 312.196H1078.96L1080.24 316.06C1080.35 316.396 1080.45 316.732 1080.55 317.068C1080.66 317.404 1080.77 317.735 1080.87 318.062H1080.93C1081.03 317.735 1081.13 317.404 1081.24 317.068C1081.34 316.732 1081.44 316.396 1081.55 316.06L1082.83 312.196H1083.97L1081.56 319H1080.22L1077.77 312.196Z" fill="#9A9A9A"/>
<path d="M1163.26 309.816H1165.56C1166.97 309.816 1168.05 310.208 1168.79 310.992C1169.53 311.776 1169.9 312.901 1169.9 314.366C1169.9 315.094 1169.8 315.747 1169.62 316.326C1169.43 316.895 1169.15 317.381 1168.79 317.782C1168.43 318.174 1167.98 318.477 1167.45 318.692C1166.91 318.897 1166.3 319 1165.61 319H1163.26V309.816ZM1165.47 318.048C1166.55 318.048 1167.35 317.726 1167.88 317.082C1168.42 316.438 1168.69 315.533 1168.69 314.366C1168.69 313.199 1168.42 312.308 1167.88 311.692C1167.35 311.076 1166.55 310.768 1165.47 310.768H1164.42V318.048H1165.47ZM1174.52 319.168C1174.06 319.168 1173.63 319.089 1173.23 318.93C1172.84 318.762 1172.49 318.529 1172.2 318.23C1171.91 317.922 1171.68 317.549 1171.51 317.11C1171.34 316.671 1171.26 316.172 1171.26 315.612C1171.26 315.052 1171.34 314.553 1171.51 314.114C1171.69 313.666 1171.92 313.288 1172.2 312.98C1172.48 312.672 1172.81 312.439 1173.18 312.28C1173.54 312.112 1173.92 312.028 1174.31 312.028C1174.74 312.028 1175.12 312.103 1175.46 312.252C1175.8 312.401 1176.09 312.616 1176.31 312.896C1176.54 313.176 1176.72 313.512 1176.84 313.904C1176.96 314.296 1177.03 314.735 1177.03 315.22C1177.03 315.341 1177.02 315.463 1177.01 315.584C1177.01 315.696 1177 315.794 1176.98 315.878H1172.39C1172.44 316.606 1172.66 317.185 1173.06 317.614C1173.47 318.034 1174.01 318.244 1174.66 318.244C1174.99 318.244 1175.28 318.197 1175.56 318.104C1175.84 318.001 1176.1 317.871 1176.35 317.712L1176.76 318.468C1176.46 318.655 1176.13 318.818 1175.77 318.958C1175.4 319.098 1174.99 319.168 1174.52 319.168ZM1176.02 315.052C1176.02 314.361 1175.87 313.839 1175.57 313.484C1175.28 313.12 1174.87 312.938 1174.34 312.938C1174.09 312.938 1173.86 312.985 1173.64 313.078C1173.42 313.171 1173.23 313.311 1173.05 313.498C1172.87 313.675 1172.72 313.895 1172.6 314.156C1172.49 314.417 1172.41 314.716 1172.38 315.052H1176.02ZM1181.39 319.168C1180.95 319.168 1180.53 319.089 1180.13 318.93C1179.74 318.771 1179.4 318.543 1179.11 318.244C1178.83 317.936 1178.61 317.563 1178.44 317.124C1178.28 316.676 1178.2 316.172 1178.2 315.612C1178.2 315.043 1178.29 314.539 1178.47 314.1C1178.65 313.652 1178.88 313.274 1179.18 312.966C1179.48 312.658 1179.83 312.425 1180.22 312.266C1180.62 312.107 1181.04 312.028 1181.48 312.028C1181.93 312.028 1182.31 312.107 1182.63 312.266C1182.94 312.425 1183.22 312.611 1183.47 312.826L1182.88 313.582C1182.68 313.405 1182.47 313.26 1182.25 313.148C1182.03 313.036 1181.79 312.98 1181.52 312.98C1181.21 312.98 1180.93 313.045 1180.67 313.176C1180.41 313.297 1180.18 313.475 1179.99 313.708C1179.81 313.941 1179.66 314.221 1179.55 314.548C1179.44 314.865 1179.39 315.22 1179.39 315.612C1179.39 316.004 1179.44 316.359 1179.55 316.676C1179.65 316.993 1179.79 317.269 1179.97 317.502C1180.15 317.726 1180.38 317.903 1180.64 318.034C1180.9 318.155 1181.18 318.216 1181.49 318.216C1181.81 318.216 1182.1 318.151 1182.36 318.02C1182.63 317.88 1182.87 317.717 1183.09 317.53L1183.59 318.3C1183.28 318.571 1182.94 318.785 1182.57 318.944C1182.2 319.093 1181.81 319.168 1181.39 319.168Z" fill="#9A9A9A"/>
<path d="M3.304 149.168C2.94933 149.168 2.62267 149.131 2.324 149.056C2.03467 148.991 1.76867 148.902 1.526 148.79C1.28333 148.669 1.064 148.533 0.868 148.384C0.681333 148.235 0.513333 148.076 0.364 147.908L0.952 147.152C1.22267 147.432 1.53533 147.679 1.89 147.894C2.254 148.109 2.702 148.216 3.234 148.216C3.77533 148.216 4.21867 148.071 4.564 147.782C4.90933 147.483 5.082 147.082 5.082 146.578C5.082 146.317 5.03067 146.079 4.928 145.864C4.83467 145.64 4.676 145.449 4.452 145.29C4.228 145.131 3.934 145.01 3.57 144.926C3.206 144.842 2.758 144.8 2.226 144.8V143.918C2.702 143.918 3.09867 143.876 3.416 143.792C3.74267 143.708 4.004 143.591 4.2 143.442C4.40533 143.293 4.55 143.115 4.634 142.91C4.718 142.705 4.76 142.485 4.76 142.252C4.76 141.813 4.62 141.468 4.34 141.216C4.06933 140.964 3.696 140.838 3.22 140.838C2.84667 140.838 2.50133 140.922 2.184 141.09C1.876 141.258 1.58667 141.477 1.316 141.748L0.7 141.02C1.04533 140.693 1.42333 140.427 1.834 140.222C2.254 140.007 2.73 139.9 3.262 139.9C3.654 139.9 4.01333 139.951 4.34 140.054C4.66667 140.157 4.94667 140.306 5.18 140.502C5.42267 140.689 5.60933 140.922 5.74 141.202C5.87067 141.482 5.936 141.804 5.936 142.168C5.936 142.709 5.78667 143.153 5.488 143.498C5.18933 143.843 4.79733 144.109 4.312 144.296V144.352C4.58267 144.417 4.83467 144.515 5.068 144.646C5.30133 144.767 5.50667 144.926 5.684 145.122C5.86133 145.309 5.99667 145.528 6.09 145.78C6.19267 146.032 6.244 146.312 6.244 146.62C6.244 147.012 6.16467 147.367 6.006 147.684C5.85667 148.001 5.64667 148.272 5.376 148.496C5.11467 148.711 4.80667 148.879 4.452 149C4.09733 149.112 3.71467 149.168 3.304 149.168ZM7.61698 150.708C8.00898 150.531 8.31698 150.297 8.54098 150.008C8.76498 149.719 8.87698 149.383 8.87698 149C8.84898 149.009 8.80232 149.014 8.73698 149.014C8.51298 149.014 8.31698 148.949 8.14898 148.818C7.99032 148.678 7.91098 148.477 7.91098 148.216C7.91098 147.964 7.99498 147.768 8.16298 147.628C8.33098 147.479 8.53165 147.404 8.76498 147.404C9.06365 147.404 9.29698 147.525 9.46498 147.768C9.64232 148.011 9.73098 148.342 9.73098 148.762C9.73098 149.369 9.56765 149.896 9.24098 150.344C8.91432 150.792 8.46632 151.137 7.89698 151.38L7.61698 150.708ZM13.9313 149.168C13.026 149.168 12.3213 148.767 11.8173 147.964C11.3133 147.161 11.0613 146.009 11.0613 144.506C11.0613 143.003 11.3133 141.86 11.8173 141.076C12.3213 140.292 13.026 139.9 13.9313 139.9C14.8273 139.9 15.5273 140.292 16.0313 141.076C16.5353 141.86 16.7873 143.003 16.7873 144.506C16.7873 146.009 16.5353 147.161 16.0313 147.964C15.5273 148.767 14.8273 149.168 13.9313 149.168ZM13.9313 148.244C14.1926 148.244 14.426 148.174 14.6313 148.034C14.846 147.885 15.028 147.661 15.1773 147.362C15.336 147.054 15.4573 146.667 15.5413 146.2C15.6253 145.724 15.6673 145.159 15.6673 144.506C15.6673 143.853 15.6253 143.293 15.5413 142.826C15.4573 142.359 15.336 141.981 15.1773 141.692C15.028 141.393 14.846 141.174 14.6313 141.034C14.426 140.894 14.1926 140.824 13.9313 140.824C13.67 140.824 13.432 140.894 13.2173 141.034C13.0026 141.174 12.816 141.393 12.6573 141.692C12.508 141.981 12.3913 142.359 12.3073 142.826C12.2233 143.293 12.1813 143.853 12.1813 144.506C12.1813 145.813 12.34 146.765 12.6573 147.362C12.984 147.95 13.4086 148.244 13.9313 148.244ZM20.8903 149.168C19.985 149.168 19.2803 148.767 18.7763 147.964C18.2723 147.161 18.0203 146.009 18.0203 144.506C18.0203 143.003 18.2723 141.86 18.7763 141.076C19.2803 140.292 19.985 139.9 20.8903 139.9C21.7863 139.9 22.4863 140.292 22.9903 141.076C23.4943 141.86 23.7463 143.003 23.7463 144.506C23.7463 146.009 23.4943 147.161 22.9903 147.964C22.4863 148.767 21.7863 149.168 20.8903 149.168ZM20.8903 148.244C21.1516 148.244 21.385 148.174 21.5903 148.034C21.805 147.885 21.987 147.661 22.1363 147.362C22.295 147.054 22.4163 146.667 22.5003 146.2C22.5843 145.724 22.6263 145.159 22.6263 144.506C22.6263 143.853 22.5843 143.293 22.5003 142.826C22.4163 142.359 22.295 141.981 22.1363 141.692C21.987 141.393 21.805 141.174 21.5903 141.034C21.385 140.894 21.1516 140.824 20.8903 140.824C20.629 140.824 20.391 140.894 20.1763 141.034C19.9616 141.174 19.775 141.393 19.6163 141.692C19.467 141.981 19.3503 142.359 19.2663 142.826C19.1823 143.293 19.1403 143.853 19.1403 144.506C19.1403 145.813 19.299 146.765 19.6163 147.362C19.943 147.95 20.3676 148.244 20.8903 148.244ZM27.8493 149.168C26.9439 149.168 26.2393 148.767 25.7353 147.964C25.2313 147.161 24.9793 146.009 24.9793 144.506C24.9793 143.003 25.2313 141.86 25.7353 141.076C26.2393 140.292 26.9439 139.9 27.8493 139.9C28.7453 139.9 29.4453 140.292 29.9493 141.076C30.4533 141.86 30.7053 143.003 30.7053 144.506C30.7053 146.009 30.4533 147.161 29.9493 147.964C29.4453 148.767 28.7453 149.168 27.8493 149.168ZM27.8493 148.244C28.1106 148.244 28.3439 148.174 28.5493 148.034C28.7639 147.885 28.9459 147.661 29.0953 147.362C29.2539 147.054 29.3753 146.667 29.4593 146.2C29.5433 145.724 29.5853 145.159 29.5853 144.506C29.5853 143.853 29.5433 143.293 29.4593 142.826C29.3753 142.359 29.2539 141.981 29.0953 141.692C28.9459 141.393 28.7639 141.174 28.5493 141.034C28.3439 140.894 28.1106 140.824 27.8493 140.824C27.5879 140.824 27.3499 140.894 27.1353 141.034C26.9206 141.174 26.7339 141.393 26.5753 141.692C26.4259 141.981 26.3093 142.359 26.2253 142.826C26.1413 143.293 26.0993 143.853 26.0993 144.506C26.0993 145.813 26.2579 146.765 26.5753 147.362C26.9019 147.95 27.3266 148.244 27.8493 148.244Z" fill="#9A9A9A"/>
<path d="M0.56 193.314C1.232 192.642 1.82933 192.035 2.352 191.494C2.87467 190.953 3.31333 190.453 3.668 189.996C4.02267 189.529 4.29333 189.105 4.48 188.722C4.66667 188.33 4.76 187.952 4.76 187.588C4.76 187.075 4.62 186.655 4.34 186.328C4.06 186.001 3.63533 185.838 3.066 185.838C2.69267 185.838 2.34733 185.945 2.03 186.16C1.71267 186.365 1.42333 186.617 1.162 186.916L0.504 186.258C0.877333 185.847 1.274 185.521 1.694 185.278C2.114 185.026 2.618 184.9 3.206 184.9C4.03667 184.9 4.69 185.143 5.166 185.628C5.642 186.104 5.88 186.739 5.88 187.532C5.88 187.952 5.78667 188.377 5.6 188.806C5.42267 189.226 5.17067 189.665 4.844 190.122C4.52667 190.57 4.144 191.041 3.696 191.536C3.25733 192.021 2.772 192.539 2.24 193.09C2.48267 193.071 2.73467 193.053 2.996 193.034C3.25733 193.015 3.50467 193.006 3.738 193.006H6.328V194H0.56V193.314ZM7.61698 195.708C8.00898 195.531 8.31698 195.297 8.54098 195.008C8.76498 194.719 8.87698 194.383 8.87698 194C8.84898 194.009 8.80232 194.014 8.73698 194.014C8.51298 194.014 8.31698 193.949 8.14898 193.818C7.99032 193.678 7.91098 193.477 7.91098 193.216C7.91098 192.964 7.99498 192.768 8.16298 192.628C8.33098 192.479 8.53165 192.404 8.76498 192.404C9.06365 192.404 9.29698 192.525 9.46498 192.768C9.64232 193.011 9.73098 193.342 9.73098 193.762C9.73098 194.369 9.56765 194.896 9.24098 195.344C8.91432 195.792 8.46632 196.137 7.89698 196.38L7.61698 195.708ZM13.9313 194.168C13.026 194.168 12.3213 193.767 11.8173 192.964C11.3133 192.161 11.0613 191.009 11.0613 189.506C11.0613 188.003 11.3133 186.86 11.8173 186.076C12.3213 185.292 13.026 184.9 13.9313 184.9C14.8273 184.9 15.5273 185.292 16.0313 186.076C16.5353 186.86 16.7873 188.003 16.7873 189.506C16.7873 191.009 16.5353 192.161 16.0313 192.964C15.5273 193.767 14.8273 194.168 13.9313 194.168ZM13.9313 193.244C14.1926 193.244 14.426 193.174 14.6313 193.034C14.846 192.885 15.028 192.661 15.1773 192.362C15.336 192.054 15.4573 191.667 15.5413 191.2C15.6253 190.724 15.6673 190.159 15.6673 189.506C15.6673 188.853 15.6253 188.293 15.5413 187.826C15.4573 187.359 15.336 186.981 15.1773 186.692C15.028 186.393 14.846 186.174 14.6313 186.034C14.426 185.894 14.1926 185.824 13.9313 185.824C13.67 185.824 13.432 185.894 13.2173 186.034C13.0026 186.174 12.816 186.393 12.6573 186.692C12.508 186.981 12.3913 187.359 12.3073 187.826C12.2233 188.293 12.1813 188.853 12.1813 189.506C12.1813 190.813 12.34 191.765 12.6573 192.362C12.984 192.95 13.4086 193.244 13.9313 193.244ZM20.8903 194.168C19.985 194.168 19.2803 193.767 18.7763 192.964C18.2723 192.161 18.0203 191.009 18.0203 189.506C18.0203 188.003 18.2723 186.86 18.7763 186.076C19.2803 185.292 19.985 184.9 20.8903 184.9C21.7863 184.9 22.4863 185.292 22.9903 186.076C23.4943 186.86 23.7463 188.003 23.7463 189.506C23.7463 191.009 23.4943 192.161 22.9903 192.964C22.4863 193.767 21.7863 194.168 20.8903 194.168ZM20.8903 193.244C21.1516 193.244 21.385 193.174 21.5903 193.034C21.805 192.885 21.987 192.661 22.1363 192.362C22.295 192.054 22.4163 191.667 22.5003 191.2C22.5843 190.724 22.6263 190.159 22.6263 189.506C22.6263 188.853 22.5843 188.293 22.5003 187.826C22.4163 187.359 22.295 186.981 22.1363 186.692C21.987 186.393 21.805 186.174 21.5903 186.034C21.385 185.894 21.1516 185.824 20.8903 185.824C20.629 185.824 20.391 185.894 20.1763 186.034C19.9616 186.174 19.775 186.393 19.6163 186.692C19.467 186.981 19.3503 187.359 19.2663 187.826C19.1823 188.293 19.1403 188.853 19.1403 189.506C19.1403 190.813 19.299 191.765 19.6163 192.362C19.943 192.95 20.3676 193.244 20.8903 193.244ZM27.8493 194.168C26.9439 194.168 26.2393 193.767 25.7353 192.964C25.2313 192.161 24.9793 191.009 24.9793 189.506C24.9793 188.003 25.2313 186.86 25.7353 186.076C26.2393 185.292 26.9439 184.9 27.8493 184.9C28.7453 184.9 29.4453 185.292 29.9493 186.076C30.4533 186.86 30.7053 188.003 30.7053 189.506C30.7053 191.009 30.4533 192.161 29.9493 192.964C29.4453 193.767 28.7453 194.168 27.8493 194.168ZM27.8493 193.244C28.1106 193.244 28.3439 193.174 28.5493 193.034C28.7639 192.885 28.9459 192.661 29.0953 192.362C29.2539 192.054 29.3753 191.667 29.4593 191.2C29.5433 190.724 29.5853 190.159 29.5853 189.506C29.5853 188.853 29.5433 188.293 29.4593 187.826C29.3753 187.359 29.2539 186.981 29.0953 186.692C28.9459 186.393 28.7639 186.174 28.5493 186.034C28.3439 185.894 28.1106 185.824 27.8493 185.824C27.5879 185.824 27.3499 185.894 27.1353 186.034C26.9206 186.174 26.7339 186.393 26.5753 186.692C26.4259 186.981 26.3093 187.359 26.2253 187.826C26.1413 188.293 26.0993 188.853 26.0993 189.506C26.0993 190.813 26.2579 191.765 26.5753 192.362C26.9019 192.95 27.3266 193.244 27.8493 193.244Z" fill="#9A9A9A"/>
<path d="M4.256 100.612V98.022C4.256 97.7793 4.26067 97.4947 4.27 97.168C4.28867 96.832 4.30733 96.5427 4.326 96.3H4.27C4.158 96.5147 4.04133 96.7247 3.92 96.93C3.79867 97.1353 3.67267 97.3453 3.542 97.56L1.456 100.612H4.256ZM6.566 101.536H5.348V104H4.256V101.536H0.238V100.78L4.06 95.068H5.348V100.612H6.566V101.536ZM7.61698 105.708C8.00898 105.531 8.31698 105.297 8.54098 105.008C8.76498 104.719 8.87698 104.383 8.87698 104C8.84898 104.009 8.80232 104.014 8.73698 104.014C8.51298 104.014 8.31698 103.949 8.14898 103.818C7.99032 103.678 7.91098 103.477 7.91098 103.216C7.91098 102.964 7.99498 102.768 8.16298 102.628C8.33098 102.479 8.53165 102.404 8.76498 102.404C9.06365 102.404 9.29698 102.525 9.46498 102.768C9.64232 103.011 9.73098 103.342 9.73098 103.762C9.73098 104.369 9.56765 104.896 9.24098 105.344C8.91432 105.792 8.46632 106.137 7.89698 106.38L7.61698 105.708ZM13.9313 104.168C13.026 104.168 12.3213 103.767 11.8173 102.964C11.3133 102.161 11.0613 101.009 11.0613 99.506C11.0613 98.0033 11.3133 96.86 11.8173 96.076C12.3213 95.292 13.026 94.9 13.9313 94.9C14.8273 94.9 15.5273 95.292 16.0313 96.076C16.5353 96.86 16.7873 98.0033 16.7873 99.506C16.7873 101.009 16.5353 102.161 16.0313 102.964C15.5273 103.767 14.8273 104.168 13.9313 104.168ZM13.9313 103.244C14.1926 103.244 14.426 103.174 14.6313 103.034C14.846 102.885 15.028 102.661 15.1773 102.362C15.336 102.054 15.4573 101.667 15.5413 101.2C15.6253 100.724 15.6673 100.159 15.6673 99.506C15.6673 98.8527 15.6253 98.2927 15.5413 97.826C15.4573 97.3593 15.336 96.9813 15.1773 96.692C15.028 96.3933 14.846 96.174 14.6313 96.034C14.426 95.894 14.1926 95.824 13.9313 95.824C13.67 95.824 13.432 95.894 13.2173 96.034C13.0026 96.174 12.816 96.3933 12.6573 96.692C12.508 96.9813 12.3913 97.3593 12.3073 97.826C12.2233 98.2927 12.1813 98.8527 12.1813 99.506C12.1813 100.813 12.34 101.765 12.6573 102.362C12.984 102.95 13.4086 103.244 13.9313 103.244ZM20.8903 104.168C19.985 104.168 19.2803 103.767 18.7763 102.964C18.2723 102.161 18.0203 101.009 18.0203 99.506C18.0203 98.0033 18.2723 96.86 18.7763 96.076C19.2803 95.292 19.985 94.9 20.8903 94.9C21.7863 94.9 22.4863 95.292 22.9903 96.076C23.4943 96.86 23.7463 98.0033 23.7463 99.506C23.7463 101.009 23.4943 102.161 22.9903 102.964C22.4863 103.767 21.7863 104.168 20.8903 104.168ZM20.8903 103.244C21.1516 103.244 21.385 103.174 21.5903 103.034C21.805 102.885 21.987 102.661 22.1363 102.362C22.295 102.054 22.4163 101.667 22.5003 101.2C22.5843 100.724 22.6263 100.159 22.6263 99.506C22.6263 98.8527 22.5843 98.2927 22.5003 97.826C22.4163 97.3593 22.295 96.9813 22.1363 96.692C21.987 96.3933 21.805 96.174 21.5903 96.034C21.385 95.894 21.1516 95.824 20.8903 95.824C20.629 95.824 20.391 95.894 20.1763 96.034C19.9616 96.174 19.775 96.3933 19.6163 96.692C19.467 96.9813 19.3503 97.3593 19.2663 97.826C19.1823 98.2927 19.1403 98.8527 19.1403 99.506C19.1403 100.813 19.299 101.765 19.6163 102.362C19.943 102.95 20.3676 103.244 20.8903 103.244ZM27.8493 104.168C26.9439 104.168 26.2393 103.767 25.7353 102.964C25.2313 102.161 24.9793 101.009 24.9793 99.506C24.9793 98.0033 25.2313 96.86 25.7353 96.076C26.2393 95.292 26.9439 94.9 27.8493 94.9C28.7453 94.9 29.4453 95.292 29.9493 96.076C30.4533 96.86 30.7053 98.0033 30.7053 99.506C30.7053 101.009 30.4533 102.161 29.9493 102.964C29.4453 103.767 28.7453 104.168 27.8493 104.168ZM27.8493 103.244C28.1106 103.244 28.3439 103.174 28.5493 103.034C28.7639 102.885 28.9459 102.661 29.0953 102.362C29.2539 102.054 29.3753 101.667 29.4593 101.2C29.5433 100.724 29.5853 100.159 29.5853 99.506C29.5853 98.8527 29.5433 98.2927 29.4593 97.826C29.3753 97.3593 29.2539 96.9813 29.0953 96.692C28.9459 96.3933 28.7639 96.174 28.5493 96.034C28.3439 95.894 28.1106 95.824 27.8493 95.824C27.5879 95.824 27.3499 95.894 27.1353 96.034C26.9206 96.174 26.7339 96.3933 26.5753 96.692C26.4259 96.9813 26.3093 97.3593 26.2253 97.826C26.1413 98.2927 26.0993 98.8527 26.0993 99.506C26.0993 100.813 26.2579 101.765 26.5753 102.362C26.9019 102.95 27.3266 103.244 27.8493 103.244Z" fill="#9A9A9A"/>
<path d="M3.276 59.168C2.92133 59.168 2.59467 59.1307 2.296 59.056C2.00667 58.9907 1.74067 58.902 1.498 58.79C1.26467 58.678 1.05 58.552 0.854 58.412C0.667333 58.2627 0.499333 58.1087 0.35 57.95L0.91 57.194C1.17133 57.4647 1.47933 57.7027 1.834 57.908C2.198 58.1133 2.64133 58.216 3.164 58.216C3.43467 58.216 3.68667 58.1693 3.92 58.076C4.16267 57.9733 4.37267 57.8333 4.55 57.656C4.72733 57.4787 4.86733 57.264 4.97 57.012C5.07267 56.76 5.124 56.48 5.124 56.172C5.124 55.556 4.95133 55.0753 4.606 54.73C4.26067 54.3847 3.79867 54.212 3.22 54.212C2.912 54.212 2.646 54.2587 2.422 54.352C2.20733 54.4453 1.96467 54.5807 1.694 54.758L1.078 54.366L1.372 50.068H5.838V51.062H2.38L2.142 53.708C2.35667 53.596 2.57133 53.5073 2.786 53.442C3.00067 53.3767 3.24333 53.344 3.514 53.344C3.89667 53.344 4.256 53.4 4.592 53.512C4.928 53.624 5.222 53.7967 5.474 54.03C5.726 54.254 5.922 54.5433 6.062 54.898C6.21133 55.2433 6.286 55.6587 6.286 56.144C6.286 56.6293 6.202 57.0587 6.034 57.432C5.866 57.8053 5.642 58.1227 5.362 58.384C5.082 58.636 4.76 58.832 4.396 58.972C4.04133 59.1027 3.668 59.168 3.276 59.168ZM7.61698 60.708C8.00898 60.5307 8.31698 60.2973 8.54098 60.008C8.76498 59.7187 8.87698 59.3827 8.87698 59C8.84898 59.0093 8.80232 59.014 8.73698 59.014C8.51298 59.014 8.31698 58.9487 8.14898 58.818C7.99032 58.678 7.91098 58.4773 7.91098 58.216C7.91098 57.964 7.99498 57.768 8.16298 57.628C8.33098 57.4787 8.53165 57.404 8.76498 57.404C9.06365 57.404 9.29698 57.5253 9.46498 57.768C9.64232 58.0107 9.73098 58.342 9.73098 58.762C9.73098 59.3687 9.56765 59.896 9.24098 60.344C8.91432 60.792 8.46632 61.1373 7.89698 61.38L7.61698 60.708ZM13.9313 59.168C13.026 59.168 12.3213 58.7667 11.8173 57.964C11.3133 57.1613 11.0613 56.0087 11.0613 54.506C11.0613 53.0033 11.3133 51.86 11.8173 51.076C12.3213 50.292 13.026 49.9 13.9313 49.9C14.8273 49.9 15.5273 50.292 16.0313 51.076C16.5353 51.86 16.7873 53.0033 16.7873 54.506C16.7873 56.0087 16.5353 57.1613 16.0313 57.964C15.5273 58.7667 14.8273 59.168 13.9313 59.168ZM13.9313 58.244C14.1926 58.244 14.426 58.174 14.6313 58.034C14.846 57.8847 15.028 57.6607 15.1773 57.362C15.336 57.054 15.4573 56.6667 15.5413 56.2C15.6253 55.724 15.6673 55.1593 15.6673 54.506C15.6673 53.8527 15.6253 53.2927 15.5413 52.826C15.4573 52.3593 15.336 51.9813 15.1773 51.692C15.028 51.3933 14.846 51.174 14.6313 51.034C14.426 50.894 14.1926 50.824 13.9313 50.824C13.67 50.824 13.432 50.894 13.2173 51.034C13.0026 51.174 12.816 51.3933 12.6573 51.692C12.508 51.9813 12.3913 52.3593 12.3073 52.826C12.2233 53.2927 12.1813 53.8527 12.1813 54.506C12.1813 55.8127 12.34 56.7647 12.6573 57.362C12.984 57.95 13.4086 58.244 13.9313 58.244ZM20.8903 59.168C19.985 59.168 19.2803 58.7667 18.7763 57.964C18.2723 57.1613 18.0203 56.0087 18.0203 54.506C18.0203 53.0033 18.2723 51.86 18.7763 51.076C19.2803 50.292 19.985 49.9 20.8903 49.9C21.7863 49.9 22.4863 50.292 22.9903 51.076C23.4943 51.86 23.7463 53.0033 23.7463 54.506C23.7463 56.0087 23.4943 57.1613 22.9903 57.964C22.4863 58.7667 21.7863 59.168 20.8903 59.168ZM20.8903 58.244C21.1516 58.244 21.385 58.174 21.5903 58.034C21.805 57.8847 21.987 57.6607 22.1363 57.362C22.295 57.054 22.4163 56.6667 22.5003 56.2C22.5843 55.724 22.6263 55.1593 22.6263 54.506C22.6263 53.8527 22.5843 53.2927 22.5003 52.826C22.4163 52.3593 22.295 51.9813 22.1363 51.692C21.987 51.3933 21.805 51.174 21.5903 51.034C21.385 50.894 21.1516 50.824 20.8903 50.824C20.629 50.824 20.391 50.894 20.1763 51.034C19.9616 51.174 19.775 51.3933 19.6163 51.692C19.467 51.9813 19.3503 52.3593 19.2663 52.826C19.1823 53.2927 19.1403 53.8527 19.1403 54.506C19.1403 55.8127 19.299 56.7647 19.6163 57.362C19.943 57.95 20.3676 58.244 20.8903 58.244ZM27.8493 59.168C26.9439 59.168 26.2393 58.7667 25.7353 57.964C25.2313 57.1613 24.9793 56.0087 24.9793 54.506C24.9793 53.0033 25.2313 51.86 25.7353 51.076C26.2393 50.292 26.9439 49.9 27.8493 49.9C28.7453 49.9 29.4453 50.292 29.9493 51.076C30.4533 51.86 30.7053 53.0033 30.7053 54.506C30.7053 56.0087 30.4533 57.1613 29.9493 57.964C29.4453 58.7667 28.7453 59.168 27.8493 59.168ZM27.8493 58.244C28.1106 58.244 28.3439 58.174 28.5493 58.034C28.7639 57.8847 28.9459 57.6607 29.0953 57.362C29.2539 57.054 29.3753 56.6667 29.4593 56.2C29.5433 55.724 29.5853 55.1593 29.5853 54.506C29.5853 53.8527 29.5433 53.2927 29.4593 52.826C29.3753 52.3593 29.2539 51.9813 29.0953 51.692C28.9459 51.3933 28.7639 51.174 28.5493 51.034C28.3439 50.894 28.1106 50.824 27.8493 50.824C27.5879 50.824 27.3499 50.894 27.1353 51.034C26.9206 51.174 26.7339 51.3933 26.5753 51.692C26.4259 51.9813 26.3093 52.3593 26.2253 52.826C26.1413 53.2927 26.0993 53.8527 26.0993 54.506C26.0993 55.8127 26.2579 56.7647 26.5753 57.362C26.9019 57.95 27.3266 58.244 27.8493 58.244Z" fill="#9A9A9A"/>
<path d="M3.752 13.258C3.976 13.258 4.18133 13.2113 4.368 13.118C4.55467 13.0247 4.718 12.894 4.858 12.726C4.998 12.5487 5.10533 12.3433 5.18 12.11C5.264 11.8673 5.306 11.5967 5.306 11.298C5.306 10.71 5.17067 10.248 4.9 9.912C4.62933 9.576 4.214 9.408 3.654 9.408C3.374 9.408 3.066 9.50133 2.73 9.688C2.40333 9.86533 2.09067 10.164 1.792 10.584C1.86667 11.4613 2.06733 12.1287 2.394 12.586C2.73 13.034 3.18267 13.258 3.752 13.258ZM5.586 6.566C5.39933 6.35133 5.17533 6.18333 4.914 6.062C4.662 5.93133 4.396 5.866 4.116 5.866C3.808 5.866 3.514 5.93133 3.234 6.062C2.954 6.19267 2.70667 6.40733 2.492 6.706C2.27733 7.00467 2.10467 7.39667 1.974 7.882C1.84333 8.358 1.77333 8.95067 1.764 9.66C2.044 9.31467 2.37067 9.044 2.744 8.848C3.11733 8.64267 3.486 8.54 3.85 8.54C4.62467 8.54 5.24067 8.76867 5.698 9.226C6.16467 9.68333 6.398 10.374 6.398 11.298C6.398 11.7273 6.328 12.1193 6.188 12.474C6.048 12.8193 5.85667 13.118 5.614 13.37C5.37133 13.622 5.09133 13.818 4.774 13.958C4.45667 14.098 4.116 14.168 3.752 14.168C3.31333 14.168 2.90733 14.0793 2.534 13.902C2.16067 13.7247 1.834 13.4587 1.554 13.104C1.28333 12.74 1.06867 12.292 0.91 11.76C0.751333 11.2187 0.672 10.5887 0.672 9.87C0.672 8.974 0.765333 8.21333 0.952 7.588C1.13867 6.95333 1.39067 6.44 1.708 6.048C2.02533 5.64667 2.38467 5.35733 2.786 5.18C3.19667 4.99333 3.626 4.9 4.074 4.9C4.55933 4.9 4.97467 4.99333 5.32 5.18C5.67467 5.35733 5.978 5.58133 6.23 5.852L5.586 6.566ZM7.61698 15.708C8.00898 15.5307 8.31698 15.2973 8.54098 15.008C8.76498 14.7187 8.87698 14.3827 8.87698 14C8.84898 14.0093 8.80232 14.014 8.73698 14.014C8.51298 14.014 8.31698 13.9487 8.14898 13.818C7.99032 13.678 7.91098 13.4773 7.91098 13.216C7.91098 12.964 7.99498 12.768 8.16298 12.628C8.33098 12.4787 8.53165 12.404 8.76498 12.404C9.06365 12.404 9.29698 12.5253 9.46498 12.768C9.64232 13.0107 9.73098 13.342 9.73098 13.762C9.73098 14.3687 9.56765 14.896 9.24098 15.344C8.91432 15.792 8.46632 16.1373 7.89698 16.38L7.61698 15.708ZM13.9313 14.168C13.026 14.168 12.3213 13.7667 11.8173 12.964C11.3133 12.1613 11.0613 11.0087 11.0613 9.506C11.0613 8.00333 11.3133 6.86 11.8173 6.076C12.3213 5.292 13.026 4.9 13.9313 4.9C14.8273 4.9 15.5273 5.292 16.0313 6.076C16.5353 6.86 16.7873 8.00333 16.7873 9.506C16.7873 11.0087 16.5353 12.1613 16.0313 12.964C15.5273 13.7667 14.8273 14.168 13.9313 14.168ZM13.9313 13.244C14.1926 13.244 14.426 13.174 14.6313 13.034C14.846 12.8847 15.028 12.6607 15.1773 12.362C15.336 12.054 15.4573 11.6667 15.5413 11.2C15.6253 10.724 15.6673 10.1593 15.6673 9.506C15.6673 8.85267 15.6253 8.29267 15.5413 7.826C15.4573 7.35933 15.336 6.98133 15.1773 6.692C15.028 6.39333 14.846 6.174 14.6313 6.034C14.426 5.894 14.1926 5.824 13.9313 5.824C13.67 5.824 13.432 5.894 13.2173 6.034C13.0026 6.174 12.816 6.39333 12.6573 6.692C12.508 6.98133 12.3913 7.35933 12.3073 7.826C12.2233 8.29267 12.1813 8.85267 12.1813 9.506C12.1813 10.8127 12.34 11.7647 12.6573 12.362C12.984 12.95 13.4086 13.244 13.9313 13.244ZM20.8903 14.168C19.985 14.168 19.2803 13.7667 18.7763 12.964C18.2723 12.1613 18.0203 11.0087 18.0203 9.506C18.0203 8.00333 18.2723 6.86 18.7763 6.076C19.2803 5.292 19.985 4.9 20.8903 4.9C21.7863 4.9 22.4863 5.292 22.9903 6.076C23.4943 6.86 23.7463 8.00333 23.7463 9.506C23.7463 11.0087 23.4943 12.1613 22.9903 12.964C22.4863 13.7667 21.7863 14.168 20.8903 14.168ZM20.8903 13.244C21.1516 13.244 21.385 13.174 21.5903 13.034C21.805 12.8847 21.987 12.6607 22.1363 12.362C22.295 12.054 22.4163 11.6667 22.5003 11.2C22.5843 10.724 22.6263 10.1593 22.6263 9.506C22.6263 8.85267 22.5843 8.29267 22.5003 7.826C22.4163 7.35933 22.295 6.98133 22.1363 6.692C21.987 6.39333 21.805 6.174 21.5903 6.034C21.385 5.894 21.1516 5.824 20.8903 5.824C20.629 5.824 20.391 5.894 20.1763 6.034C19.9616 6.174 19.775 6.39333 19.6163 6.692C19.467 6.98133 19.3503 7.35933 19.2663 7.826C19.1823 8.29267 19.1403 8.85267 19.1403 9.506C19.1403 10.8127 19.299 11.7647 19.6163 12.362C19.943 12.95 20.3676 13.244 20.8903 13.244ZM27.8493 14.168C26.9439 14.168 26.2393 13.7667 25.7353 12.964C25.2313 12.1613 24.9793 11.0087 24.9793 9.506C24.9793 8.00333 25.2313 6.86 25.7353 6.076C26.2393 5.292 26.9439 4.9 27.8493 4.9C28.7453 4.9 29.4453 5.292 29.9493 6.076C30.4533 6.86 30.7053 8.00333 30.7053 9.506C30.7053 11.0087 30.4533 12.1613 29.9493 12.964C29.4453 13.7667 28.7453 14.168 27.8493 14.168ZM27.8493 13.244C28.1106 13.244 28.3439 13.174 28.5493 13.034C28.7639 12.8847 28.9459 12.6607 29.0953 12.362C29.2539 12.054 29.3753 11.6667 29.4593 11.2C29.5433 10.724 29.5853 10.1593 29.5853 9.506C29.5853 8.85267 29.5433 8.29267 29.4593 7.826C29.3753 7.35933 29.2539 6.98133 29.0953 6.692C28.9459 6.39333 28.7639 6.174 28.5493 6.034C28.3439 5.894 28.1106 5.824 27.8493 5.824C27.5879 5.824 27.3499 5.894 27.1353 6.034C26.9206 6.174 26.7339 6.39333 26.5753 6.692C26.4259 6.98133 26.3093 7.35933 26.2253 7.826C26.1413 8.29267 26.0993 8.85267 26.0993 9.506C26.0993 10.8127 26.2579 11.7647 26.5753 12.362C26.9019 12.95 27.3266 13.244 27.8493 13.244Z" fill="#9A9A9A"/>
<path opacity="0.1" d="M56 8.5H1179" stroke="black" stroke-dasharray="2 2"/>
<path opacity="0.1" d="M56 55.5H1179" stroke="black" stroke-dasharray="2 2"/>
<path opacity="0.1" d="M56 98.5H1179" stroke="black" stroke-dasharray="2 2"/>
<path opacity="0.1" d="M56 144.5H1179" stroke="black" stroke-dasharray="2 2"/>
<path opacity="0.1" d="M56 188.5H1179" stroke="black" stroke-dasharray="2 2"/>
<path opacity="0.1" d="M56 234.5H1179" stroke="black" stroke-dasharray="2 2"/>
<path opacity="0.1" d="M56 279.5H1179" stroke="black" stroke-dasharray="2 2"/>
<line opacity="0.1" x1="62.5" y1="1" x2="62.5" y2="286" stroke="black" stroke-dasharray="2 2"/>
<line opacity="0.1" x1="163.5" y1="1" x2="163.5" y2="286" stroke="black" stroke-dasharray="2 2"/>
<line opacity="0.1" x1="264.5" y1="1" x2="264.5" y2="286" stroke="black" stroke-dasharray="2 2"/>
<line opacity="0.1" x1="365.5" y1="1" x2="365.5" y2="286" stroke="black" stroke-dasharray="2 2"/>
<line opacity="0.1" x1="466.5" y1="1" x2="466.5" y2="286" stroke="black" stroke-dasharray="2 2"/>
<line opacity="0.1" x1="567.5" y1="1" x2="567.5" y2="286" stroke="black" stroke-dasharray="2 2"/>
<line opacity="0.1" x1="668.5" y1="1" x2="668.5" y2="286" stroke="black" stroke-dasharray="2 2"/>
<line opacity="0.1" x1="769.5" y1="1" x2="769.5" y2="286" stroke="black" stroke-dasharray="2 2"/>
<line opacity="0.1" x1="870.5" y1="1" x2="870.5" y2="286" stroke="black" stroke-dasharray="2 2"/>
<line opacity="0.1" x1="971.5" y1="1" x2="971.5" y2="286" stroke="black" stroke-dasharray="2 2"/>
<line opacity="0.1" x1="1072.5" y1="1" x2="1072.5" y2="286" stroke="black" stroke-dasharray="2 2"/>
<line opacity="0.1" x1="1173.5" y1="1" x2="1173.5" y2="286" stroke="black" stroke-dasharray="2 2"/>
<path d="M62 242.5C89.8333 203.5 177.3 130.3 304.5 149.5C463.5 173.5 465.5 236.5 695 222.5C924.5 208.5 882 49.5 1172.5 118" stroke="#0FBFE5" stroke-width="2" stroke-linecap="round" stroke-linejoin="round"/>
<path d="M62.5 64C70.3333 111 129.9 206 305.5 210C426.5 207.5 540 34.5 754.5 51.5C969 68.5 865 307 1173 219.5" stroke="#8657F3" stroke-width="2" stroke-linecap="round" stroke-linejoin="round"/>
<path d="M62.5 191.5C87.6667 227.5 177.9 290.8 337.5 256C537 212.5 633 84 938 57.5C1114.4 53.1 1168.5 64.6667 1173.5 71" stroke="#FF4C84" stroke-width="2" stroke-linecap="round" stroke-linejoin="round"/>
<g filter="url(#filter0_d_239_2247)">
<rect x="225" y="118" width="81" height="21" rx="5" fill="white"/>
<path d="M231.276 125.128H232.308L233.136 129.412C233.208 129.844 233.284 130.268 233.364 130.684C233.444 131.1 233.52 131.524 233.592 131.956H233.64C233.728 131.524 233.82 131.1 233.916 130.684C234.012 130.26 234.104 129.836 234.192 129.412L235.284 125.128H236.196L237.288 129.412C237.384 129.828 237.48 130.248 237.576 130.672C237.672 131.096 237.768 131.524 237.864 131.956H237.912C237.984 131.524 238.056 131.1 238.128 130.684C238.2 130.26 238.276 129.836 238.356 129.412L239.184 125.128H240.144L238.512 133H237.312L236.124 128.26C236.052 127.956 235.984 127.66 235.92 127.372C235.864 127.076 235.804 126.776 235.74 126.472H235.692C235.628 126.776 235.56 127.076 235.488 127.372C235.424 127.66 235.36 127.956 235.296 128.26L234.132 133H232.944L231.276 125.128ZM243.782 133.144C243.39 133.144 243.022 133.076 242.678 132.94C242.342 132.796 242.046 132.596 241.79 132.34C241.542 132.076 241.346 131.756 241.202 131.38C241.058 131.004 240.986 130.576 240.986 130.096C240.986 129.616 241.058 129.188 241.202 128.812C241.354 128.428 241.55 128.104 241.79 127.84C242.038 127.576 242.318 127.376 242.63 127.24C242.942 127.096 243.266 127.024 243.602 127.024C243.97 127.024 244.298 127.088 244.586 127.216C244.882 127.344 245.126 127.528 245.318 127.768C245.518 128.008 245.67 128.296 245.774 128.632C245.878 128.968 245.93 129.344 245.93 129.76C245.93 129.864 245.926 129.968 245.918 130.072C245.918 130.168 245.91 130.252 245.894 130.324H241.958C241.998 130.948 242.19 131.444 242.534 131.812C242.886 132.172 243.342 132.352 243.902 132.352C244.182 132.352 244.438 132.312 244.67 132.232C244.91 132.144 245.138 132.032 245.354 131.896L245.702 132.544C245.446 132.704 245.162 132.844 244.85 132.964C244.538 133.084 244.182 133.144 243.782 133.144ZM245.066 129.616C245.066 129.024 244.938 128.576 244.682 128.272C244.434 127.96 244.082 127.804 243.626 127.804C243.418 127.804 243.218 127.844 243.026 127.924C242.842 128.004 242.674 128.124 242.522 128.284C242.37 128.436 242.242 128.624 242.138 128.848C242.042 129.072 241.978 129.328 241.946 129.616H245.066ZM249.363 133.144C248.627 133.144 248.039 132.88 247.599 132.352C247.167 131.824 246.951 131.072 246.951 130.096C246.951 129.624 247.019 129.2 247.155 128.824C247.299 128.44 247.487 128.116 247.719 127.852C247.951 127.588 248.219 127.384 248.523 127.24C248.827 127.096 249.147 127.024 249.483 127.024C249.819 127.024 250.111 127.084 250.359 127.204C250.607 127.324 250.859 127.488 251.115 127.696L251.067 126.7V124.456H252.063V133H251.247L251.163 132.316H251.127C250.895 132.54 250.627 132.736 250.323 132.904C250.027 133.064 249.707 133.144 249.363 133.144ZM249.579 132.316C249.851 132.316 250.107 132.252 250.347 132.124C250.587 131.988 250.827 131.784 251.067 131.512V128.464C250.819 128.24 250.579 128.084 250.347 127.996C250.123 127.9 249.891 127.852 249.651 127.852C249.419 127.852 249.199 127.908 248.991 128.02C248.791 128.124 248.615 128.276 248.463 128.476C248.311 128.668 248.191 128.9 248.103 129.172C248.015 129.444 247.971 129.748 247.971 130.084C247.971 130.788 248.111 131.336 248.391 131.728C248.671 132.12 249.067 132.316 249.579 132.316Z" fill="black"/>
<path d="M271.948 132.184H273.7V126.544H272.308V125.908C272.66 125.844 272.964 125.768 273.22 125.68C273.484 125.584 273.72 125.472 273.928 125.344H274.684V132.184H276.268V133H271.948V132.184ZM279.797 133.144C279.493 133.144 279.213 133.112 278.957 133.048C278.709 132.992 278.481 132.916 278.273 132.82C278.065 132.716 277.877 132.6 277.709 132.472C277.549 132.344 277.405 132.208 277.277 132.064L277.781 131.416C278.013 131.656 278.281 131.868 278.585 132.052C278.897 132.236 279.281 132.328 279.737 132.328C280.201 132.328 280.581 132.204 280.877 131.956C281.173 131.7 281.321 131.356 281.321 130.924C281.321 130.7 281.277 130.496 281.189 130.312C281.109 130.12 280.973 129.956 280.781 129.82C280.589 129.684 280.337 129.58 280.025 129.508C279.713 129.436 279.329 129.4 278.873 129.4V128.644C279.281 128.644 279.621 128.608 279.893 128.536C280.173 128.464 280.397 128.364 280.565 128.236C280.741 128.108 280.865 127.956 280.937 127.78C281.009 127.604 281.045 127.416 281.045 127.216C281.045 126.84 280.925 126.544 280.685 126.328C280.453 126.112 280.133 126.004 279.725 126.004C279.405 126.004 279.109 126.076 278.837 126.22C278.573 126.364 278.325 126.552 278.093 126.784L277.565 126.16C277.861 125.88 278.185 125.652 278.537 125.476C278.897 125.292 279.305 125.2 279.761 125.2C280.097 125.2 280.405 125.244 280.685 125.332C280.965 125.42 281.205 125.548 281.405 125.716C281.613 125.876 281.773 126.076 281.885 126.316C281.997 126.556 282.053 126.832 282.053 127.144C282.053 127.608 281.925 127.988 281.669 128.284C281.413 128.58 281.077 128.808 280.661 128.968V129.016C280.893 129.072 281.109 129.156 281.309 129.268C281.509 129.372 281.685 129.508 281.837 129.676C281.989 129.836 282.105 130.024 282.185 130.24C282.273 130.456 282.317 130.696 282.317 130.96C282.317 131.296 282.249 131.6 282.113 131.872C281.985 132.144 281.805 132.376 281.573 132.568C281.349 132.752 281.085 132.896 280.781 133C280.477 133.096 280.149 133.144 279.797 133.144ZM286.578 130.096V127.876C286.578 127.668 286.582 127.424 286.59 127.144C286.606 126.856 286.622 126.608 286.638 126.4H286.59C286.494 126.584 286.394 126.764 286.29 126.94C286.186 127.116 286.078 127.296 285.966 127.48L284.178 130.096H286.578ZM288.558 130.888H287.514V133H286.578V130.888H283.134V130.24L286.41 125.344H287.514V130.096H288.558V130.888ZM291.703 133.144C291.399 133.144 291.119 133.112 290.863 133.048C290.615 132.992 290.387 132.916 290.179 132.82C289.979 132.724 289.795 132.616 289.627 132.496C289.467 132.368 289.323 132.236 289.195 132.1L289.675 131.452C289.899 131.684 290.163 131.888 290.467 132.064C290.779 132.24 291.159 132.328 291.607 132.328C291.839 132.328 292.055 132.288 292.255 132.208C292.463 132.12 292.643 132 292.795 131.848C292.947 131.696 293.067 131.512 293.155 131.296C293.243 131.08 293.287 130.84 293.287 130.576C293.287 130.048 293.139 129.636 292.843 129.34C292.547 129.044 292.151 128.896 291.655 128.896C291.391 128.896 291.163 128.936 290.971 129.016C290.787 129.096 290.579 129.212 290.347 129.364L289.819 129.028L290.071 125.344H293.899V126.196H290.935L290.731 128.464C290.915 128.368 291.099 128.292 291.283 128.236C291.467 128.18 291.675 128.152 291.907 128.152C292.235 128.152 292.543 128.2 292.831 128.296C293.119 128.392 293.371 128.54 293.587 128.74C293.803 128.932 293.971 129.18 294.091 129.484C294.219 129.78 294.283 130.136 294.283 130.552C294.283 130.968 294.211 131.336 294.067 131.656C293.923 131.976 293.731 132.248 293.491 132.472C293.251 132.688 292.975 132.856 292.663 132.976C292.359 133.088 292.039 133.144 291.703 133.144ZM298.075 132.364C298.267 132.364 298.443 132.324 298.603 132.244C298.763 132.164 298.903 132.052 299.023 131.908C299.143 131.756 299.235 131.58 299.299 131.38C299.371 131.172 299.407 130.94 299.407 130.684C299.407 130.18 299.291 129.784 299.059 129.496C298.827 129.208 298.471 129.064 297.991 129.064C297.751 129.064 297.487 129.144 297.199 129.304C296.919 129.456 296.651 129.712 296.395 130.072C296.459 130.824 296.631 131.396 296.911 131.788C297.199 132.172 297.587 132.364 298.075 132.364ZM299.647 126.628C299.487 126.444 299.295 126.3 299.071 126.196C298.855 126.084 298.627 126.028 298.387 126.028C298.123 126.028 297.871 126.084 297.631 126.196C297.391 126.308 297.179 126.492 296.995 126.748C296.811 127.004 296.663 127.34 296.551 127.756C296.439 128.164 296.379 128.672 296.371 129.28C296.611 128.984 296.891 128.752 297.211 128.584C297.531 128.408 297.847 128.32 298.159 128.32C298.823 128.32 299.351 128.516 299.743 128.908C300.143 129.3 300.343 129.892 300.343 130.684C300.343 131.052 300.283 131.388 300.163 131.692C300.043 131.988 299.879 132.244 299.671 132.46C299.463 132.676 299.223 132.844 298.951 132.964C298.679 133.084 298.387 133.144 298.075 133.144C297.699 133.144 297.351 133.068 297.031 132.916C296.711 132.764 296.431 132.536 296.191 132.232C295.959 131.92 295.775 131.536 295.639 131.08C295.503 130.616 295.435 130.076 295.435 129.46C295.435 128.692 295.515 128.04 295.675 127.504C295.835 126.96 296.051 126.52 296.323 126.184C296.595 125.84 296.903 125.592 297.247 125.44C297.599 125.28 297.967 125.2 298.351 125.2C298.767 125.2 299.123 125.28 299.419 125.44C299.723 125.592 299.983 125.784 300.199 126.016L299.647 126.628Z" fill="black"/>
<circle cx="267" cy="129" r="3" fill="#0FBFE5"/>
<g filter="url(#filter1_d_239_2247)">
<path d="M265.659 141.593C265.269 142.236 264.336 142.235 263.948 141.593L262.09 138.52C261.687 137.853 262.168 137.001 262.947 137.002L266.669 137.003C267.448 137.003 267.927 137.855 267.523 138.521L265.659 141.593Z" fill="white"/>
</g>
</g>
<defs>
<filter id="filter0_d_239_2247" x="220" y="113" width="91" height="34.0749" filterUnits="userSpaceOnUse" color-interpolation-filters="sRGB">
<feFlood flood-opacity="0" result="BackgroundImageFix"/>
<feColorMatrix in="SourceAlpha" type="matrix" values="0 0 0 0 0 0 0 0 0 0 0 0 0 0 0 0 0 0 127 0" result="hardAlpha"/>
<feOffset/>
<feGaussianBlur stdDeviation="2.5"/>
<feColorMatrix type="matrix" values="0 0 0 0 0 0 0 0 0 0 0 0 0 0 0 0 0 0 0.12 0"/>
<feBlend mode="normal" in2="BackgroundImageFix" result="effect1_dropShadow_239_2247"/>
<feBlend mode="normal" in="SourceGraphic" in2="effect1_dropShadow_239_2247" result="shape"/>
</filter>
<filter id="filter1_d_239_2247" x="238.944" y="118.002" width="51.7249" height="51.0731" filterUnits="userSpaceOnUse" color-interpolation-filters="sRGB">
<feFlood flood-opacity="0" result="BackgroundImageFix"/>
<feColorMatrix in="SourceAlpha" type="matrix" values="0 0 0 0 0 0 0 0 0 0 0 0 0 0 0 0 0 0 127 0" result="hardAlpha"/>
<feMorphology radius="2" operator="dilate" in="SourceAlpha" result="effect1_dropShadow_239_2247"/>
<feOffset dy="4"/>
<feGaussianBlur stdDeviation="10.5"/>
<feColorMatrix type="matrix" values="0 0 0 0 0 0 0 0 0 0 0 0 0 0 0 0 0 0 0.07 0"/>
<feBlend mode="normal" in2="BackgroundImageFix" result="effect1_dropShadow_239_2247"/>
<feBlend mode="normal" in="SourceGraphic" in2="effect1_dropShadow_239_2247" result="shape"/>
</filter>
</defs>
</svg>
