<svg width="141" height="69" viewBox="0 0 141 69" fill="none" xmlns="http://www.w3.org/2000/svg">
<g clip-path="url(#clip0_239_2248)">
<path opacity="0.2" d="M39 29C21.6144 30.0432 10.1732 38.3666 8 50.2467V68.9362H141V26.7761C133.176 5.91337 123.5 -2.5 108 1.5C81.5632 8.32239 108.121 35.9151 79 42C49.8791 48.085 60.732 27.6961 39 29Z" fill="#FF4C84"/>
<path d="M8.86914 50.2467C11.0423 38.3665 20.6141 30.0432 37.9998 29C59.7318 27.6961 48.8788 48.085 77.9998 42C107.121 35.915 80.6943 7.68816 107.5 2.5C123 -0.500004 132.307 5.47873 140.131 26.3415" stroke="#FF4C84" stroke-width="2" stroke-linecap="round" stroke-linejoin="round"/>
<g filter="url(#filter0_d_239_2248)">
<rect width="81" height="21" rx="5" fill="white"/>
<path d="M6.276 7.128H7.308L8.136 11.412C8.208 11.844 8.284 12.268 8.364 12.684C8.444 13.1 8.52 13.524 8.592 13.956H8.64C8.728 13.524 8.82 13.1 8.916 12.684C9.012 12.26 9.104 11.836 9.192 11.412L10.284 7.128H11.196L12.288 11.412C12.384 11.828 12.48 12.248 12.576 12.672C12.672 13.096 12.768 13.524 12.864 13.956H12.912C12.984 13.524 13.056 13.1 13.128 12.684C13.2 12.26 13.276 11.836 13.356 11.412L14.184 7.128H15.144L13.512 15H12.312L11.124 10.26C11.052 9.956 10.984 9.66 10.92 9.372C10.864 9.076 10.804 8.776 10.74 8.472H10.692C10.628 8.776 10.56 9.076 10.488 9.372C10.424 9.66 10.36 9.956 10.296 10.26L9.132 15H7.944L6.276 7.128ZM18.7816 15.144C18.3896 15.144 18.0216 15.076 17.6776 14.94C17.3416 14.796 17.0456 14.596 16.7896 14.34C16.5416 14.076 16.3456 13.756 16.2016 13.38C16.0576 13.004 15.9856 12.576 15.9856 12.096C15.9856 11.616 16.0576 11.188 16.2016 10.812C16.3536 10.428 16.5496 10.104 16.7896 9.84C17.0376 9.576 17.3176 9.376 17.6296 9.24C17.9416 9.096 18.2656 9.024 18.6016 9.024C18.9696 9.024 19.2976 9.088 19.5856 9.216C19.8816 9.344 20.1256 9.528 20.3176 9.768C20.5176 10.008 20.6696 10.296 20.7736 10.632C20.8776 10.968 20.9296 11.344 20.9296 11.76C20.9296 11.864 20.9256 11.968 20.9176 12.072C20.9176 12.168 20.9096 12.252 20.8936 12.324H16.9576C16.9976 12.948 17.1896 13.444 17.5336 13.812C17.8856 14.172 18.3416 14.352 18.9016 14.352C19.1816 14.352 19.4376 14.312 19.6696 14.232C19.9096 14.144 20.1376 14.032 20.3536 13.896L20.7016 14.544C20.4456 14.704 20.1616 14.844 19.8496 14.964C19.5376 15.084 19.1816 15.144 18.7816 15.144ZM20.0656 11.616C20.0656 11.024 19.9376 10.576 19.6816 10.272C19.4336 9.96 19.0816 9.804 18.6256 9.804C18.4176 9.804 18.2176 9.844 18.0256 9.924C17.8416 10.004 17.6736 10.124 17.5216 10.284C17.3696 10.436 17.2416 10.624 17.1376 10.848C17.0416 11.072 16.9776 11.328 16.9456 11.616H20.0656ZM24.3627 15.144C23.6267 15.144 23.0387 14.88 22.5987 14.352C22.1667 13.824 21.9507 13.072 21.9507 12.096C21.9507 11.624 22.0187 11.2 22.1547 10.824C22.2987 10.44 22.4867 10.116 22.7187 9.852C22.9507 9.588 23.2187 9.384 23.5227 9.24C23.8267 9.096 24.1467 9.024 24.4827 9.024C24.8187 9.024 25.1107 9.084 25.3587 9.204C25.6067 9.324 25.8587 9.488 26.1147 9.696L26.0667 8.7V6.456H27.0627V15H26.2467L26.1627 14.316H26.1267C25.8947 14.54 25.6267 14.736 25.3227 14.904C25.0267 15.064 24.7067 15.144 24.3627 15.144ZM24.5787 14.316C24.8507 14.316 25.1067 14.252 25.3467 14.124C25.5867 13.988 25.8267 13.784 26.0667 13.512V10.464C25.8187 10.24 25.5787 10.084 25.3467 9.996C25.1227 9.9 24.8907 9.852 24.6507 9.852C24.4187 9.852 24.1987 9.908 23.9907 10.02C23.7907 10.124 23.6147 10.276 23.4627 10.476C23.3107 10.668 23.1907 10.9 23.1027 11.172C23.0147 11.444 22.9707 11.748 22.9707 12.084C22.9707 12.788 23.1107 13.336 23.3907 13.728C23.6707 14.12 24.0667 14.316 24.5787 14.316Z" fill="black"/>
<path d="M46.948 14.184H48.7V8.544H47.308V7.908C47.66 7.844 47.964 7.768 48.22 7.68C48.484 7.584 48.72 7.472 48.928 7.344H49.684V14.184H51.268V15H46.948V14.184ZM54.7968 15.144C54.4928 15.144 54.2128 15.112 53.9568 15.048C53.7088 14.992 53.4808 14.916 53.2728 14.82C53.0648 14.716 52.8768 14.6 52.7088 14.472C52.5488 14.344 52.4048 14.208 52.2768 14.064L52.7808 13.416C53.0128 13.656 53.2808 13.868 53.5848 14.052C53.8968 14.236 54.2808 14.328 54.7368 14.328C55.2008 14.328 55.5808 14.204 55.8768 13.956C56.1728 13.7 56.3208 13.356 56.3208 12.924C56.3208 12.7 56.2768 12.496 56.1888 12.312C56.1088 12.12 55.9728 11.956 55.7808 11.82C55.5888 11.684 55.3368 11.58 55.0248 11.508C54.7128 11.436 54.3288 11.4 53.8728 11.4V10.644C54.2808 10.644 54.6208 10.608 54.8928 10.536C55.1728 10.464 55.3968 10.364 55.5648 10.236C55.7408 10.108 55.8648 9.956 55.9368 9.78C56.0088 9.604 56.0448 9.416 56.0448 9.216C56.0448 8.84 55.9248 8.544 55.6848 8.328C55.4528 8.112 55.1328 8.004 54.7248 8.004C54.4048 8.004 54.1088 8.076 53.8368 8.22C53.5728 8.364 53.3248 8.552 53.0928 8.784L52.5648 8.16C52.8608 7.88 53.1848 7.652 53.5368 7.476C53.8968 7.292 54.3048 7.2 54.7608 7.2C55.0968 7.2 55.4048 7.244 55.6848 7.332C55.9648 7.42 56.2048 7.548 56.4048 7.716C56.6128 7.876 56.7728 8.076 56.8848 8.316C56.9968 8.556 57.0528 8.832 57.0528 9.144C57.0528 9.608 56.9248 9.988 56.6688 10.284C56.4128 10.58 56.0768 10.808 55.6608 10.968V11.016C55.8928 11.072 56.1088 11.156 56.3088 11.268C56.5088 11.372 56.6848 11.508 56.8368 11.676C56.9888 11.836 57.1048 12.024 57.1848 12.24C57.2728 12.456 57.3168 12.696 57.3168 12.96C57.3168 13.296 57.2488 13.6 57.1128 13.872C56.9848 14.144 56.8048 14.376 56.5728 14.568C56.3488 14.752 56.0848 14.896 55.7808 15C55.4768 15.096 55.1488 15.144 54.7968 15.144ZM61.5777 12.096V9.876C61.5777 9.668 61.5817 9.424 61.5897 9.144C61.6057 8.856 61.6217 8.608 61.6377 8.4H61.5897C61.4937 8.584 61.3937 8.764 61.2897 8.94C61.1857 9.116 61.0777 9.296 60.9657 9.48L59.1777 12.096H61.5777ZM63.5577 12.888H62.5137V15H61.5777V12.888H58.1337V12.24L61.4097 7.344H62.5137V12.096H63.5577V12.888ZM66.7025 15.144C66.3985 15.144 66.1185 15.112 65.8625 15.048C65.6145 14.992 65.3865 14.916 65.1785 14.82C64.9785 14.724 64.7945 14.616 64.6265 14.496C64.4665 14.368 64.3225 14.236 64.1945 14.1L64.6745 13.452C64.8985 13.684 65.1625 13.888 65.4665 14.064C65.7785 14.24 66.1585 14.328 66.6065 14.328C66.8385 14.328 67.0545 14.288 67.2545 14.208C67.4625 14.12 67.6425 14 67.7945 13.848C67.9465 13.696 68.0665 13.512 68.1545 13.296C68.2425 13.08 68.2865 12.84 68.2865 12.576C68.2865 12.048 68.1385 11.636 67.8425 11.34C67.5465 11.044 67.1505 10.896 66.6545 10.896C66.3905 10.896 66.1625 10.936 65.9705 11.016C65.7865 11.096 65.5785 11.212 65.3465 11.364L64.8185 11.028L65.0705 7.344H68.8985V8.196H65.9345L65.7305 10.464C65.9145 10.368 66.0985 10.292 66.2825 10.236C66.4665 10.18 66.6745 10.152 66.9065 10.152C67.2345 10.152 67.5425 10.2 67.8305 10.296C68.1185 10.392 68.3705 10.54 68.5865 10.74C68.8025 10.932 68.9705 11.18 69.0905 11.484C69.2185 11.78 69.2825 12.136 69.2825 12.552C69.2825 12.968 69.2105 13.336 69.0665 13.656C68.9225 13.976 68.7305 14.248 68.4905 14.472C68.2505 14.688 67.9745 14.856 67.6625 14.976C67.3585 15.088 67.0385 15.144 66.7025 15.144ZM73.0754 14.364C73.2674 14.364 73.4434 14.324 73.6034 14.244C73.7634 14.164 73.9034 14.052 74.0234 13.908C74.1434 13.756 74.2354 13.58 74.2994 13.38C74.3714 13.172 74.4074 12.94 74.4074 12.684C74.4074 12.18 74.2914 11.784 74.0594 11.496C73.8274 11.208 73.4714 11.064 72.9914 11.064C72.7514 11.064 72.4874 11.144 72.1994 11.304C71.9194 11.456 71.6514 11.712 71.3954 12.072C71.4594 12.824 71.6314 13.396 71.9114 13.788C72.1994 14.172 72.5874 14.364 73.0754 14.364ZM74.6474 8.628C74.4874 8.444 74.2954 8.3 74.0714 8.196C73.8554 8.084 73.6274 8.028 73.3874 8.028C73.1234 8.028 72.8714 8.084 72.6314 8.196C72.3914 8.308 72.1794 8.492 71.9954 8.748C71.8114 9.004 71.6634 9.34 71.5514 9.756C71.4394 10.164 71.3794 10.672 71.3714 11.28C71.6114 10.984 71.8914 10.752 72.2114 10.584C72.5314 10.408 72.8474 10.32 73.1594 10.32C73.8234 10.32 74.3514 10.516 74.7434 10.908C75.1434 11.3 75.3434 11.892 75.3434 12.684C75.3434 13.052 75.2834 13.388 75.1634 13.692C75.0434 13.988 74.8794 14.244 74.6714 14.46C74.4634 14.676 74.2234 14.844 73.9514 14.964C73.6794 15.084 73.3874 15.144 73.0754 15.144C72.6994 15.144 72.3514 15.068 72.0314 14.916C71.7114 14.764 71.4314 14.536 71.1914 14.232C70.9594 13.92 70.7754 13.536 70.6394 13.08C70.5034 12.616 70.4354 12.076 70.4354 11.46C70.4354 10.692 70.5154 10.04 70.6754 9.504C70.8354 8.96 71.0514 8.52 71.3234 8.184C71.5954 7.84 71.9034 7.592 72.2474 7.44C72.5994 7.28 72.9674 7.2 73.3514 7.2C73.7674 7.2 74.1234 7.28 74.4194 7.44C74.7234 7.592 74.9834 7.784 75.1994 8.016L74.6474 8.628Z" fill="black"/>
<circle cx="42" cy="11" r="3" fill="#FF4C84"/>
<g filter="url(#filter1_d_239_2248)">
<path d="M40.6585 23.5933C40.2687 24.2357 39.3364 24.2354 38.9478 23.5927L37.09 20.5195C36.687 19.8529 37.1677 19.0015 37.9468 19.0017L41.6687 19.0031C42.4479 19.0033 42.9269 19.8551 42.5226 20.5214L40.6585 23.5933Z" fill="white"/>
</g>
</g>
</g>
<defs>
<filter id="filter0_d_239_2248" x="-5" y="-5" width="91" height="34.0749" filterUnits="userSpaceOnUse" color-interpolation-filters="sRGB">
<feFlood flood-opacity="0" result="BackgroundImageFix"/>
<feColorMatrix in="SourceAlpha" type="matrix" values="0 0 0 0 0 0 0 0 0 0 0 0 0 0 0 0 0 0 127 0" result="hardAlpha"/>
<feOffset/>
<feGaussianBlur stdDeviation="2.5"/>
<feColorMatrix type="matrix" values="0 0 0 0 0 0 0 0 0 0 0 0 0 0 0 0 0 0 0.12 0"/>
<feBlend mode="normal" in2="BackgroundImageFix" result="effect1_dropShadow_239_2248"/>
<feBlend mode="normal" in="SourceGraphic" in2="effect1_dropShadow_239_2248" result="shape"/>
</filter>
<filter id="filter1_d_239_2248" x="13.9443" y="0.0017395" width="51.7251" height="51.0732" filterUnits="userSpaceOnUse" color-interpolation-filters="sRGB">
<feFlood flood-opacity="0" result="BackgroundImageFix"/>
<feColorMatrix in="SourceAlpha" type="matrix" values="0 0 0 0 0 0 0 0 0 0 0 0 0 0 0 0 0 0 127 0" result="hardAlpha"/>
<feMorphology radius="2" operator="dilate" in="SourceAlpha" result="effect1_dropShadow_239_2248"/>
<feOffset dy="4"/>
<feGaussianBlur stdDeviation="10.5"/>
<feColorMatrix type="matrix" values="0 0 0 0 0 0 0 0 0 0 0 0 0 0 0 0 0 0 0.07 0"/>
<feBlend mode="normal" in2="BackgroundImageFix" result="effect1_dropShadow_239_2248"/>
<feBlend mode="normal" in="SourceGraphic" in2="effect1_dropShadow_239_2248" result="shape"/>
</filter>
<clipPath id="clip0_239_2248">
<rect width="141" height="68.9362" fill="white"/>
</clipPath>
</defs>
</svg>
