<svg width="26" height="26" viewBox="0 0 26 26" fill="none" xmlns="http://www.w3.org/2000/svg">
<g clip-path="url(#clip0_191_2574)">
<path d="M13 24.7578C13.455 24.7473 13.8916 24.5763 14.2326 24.2749C14.5736 23.9736 14.797 23.5613 14.8633 23.1111H11.0645C11.1327 23.5736 11.3666 23.9955 11.7226 24.2984C12.0787 24.6013 12.5326 24.7645 13 24.7578V24.7578Z" fill="white"/>
<path d="M23.4794 20.0994C22.783 19.4786 22.1733 18.7668 21.6667 17.9833C21.1136 16.9018 20.7821 15.7208 20.6917 14.5094V10.9417C20.6887 10.5083 20.6501 10.0759 20.5761 9.64889C20.0076 9.53526 19.4613 9.33039 18.9583 9.04222C19.1501 9.65961 19.2474 10.3024 19.2472 10.9489V14.5167C19.3357 15.9944 19.7422 17.4355 20.4389 18.7417C20.9375 19.5318 21.5291 20.2592 22.2011 20.9083H3.70498C4.37694 20.2592 4.96858 19.5318 5.4672 18.7417C6.16387 17.4355 6.57035 15.9944 6.65887 14.5167V10.9417C6.65507 10.1058 6.81618 9.27745 7.13297 8.50397C7.44976 7.73048 7.91601 7.02708 8.50503 6.43404C9.09404 5.84099 9.79425 5.36996 10.5656 5.04791C11.3369 4.72586 12.1641 4.55911 13 4.55722C14.2233 4.5582 15.4191 4.91996 16.4378 5.59722C16.3255 5.18482 16.2624 4.76057 16.25 4.33333V3.87833C15.4959 3.50737 14.6857 3.26335 13.8522 3.15611V2.24611C13.8522 1.9904 13.7506 1.74516 13.5698 1.56434C13.389 1.38353 13.1438 1.28194 12.888 1.28194C12.6323 1.28194 12.3871 1.38353 12.2063 1.56434C12.0255 1.74516 11.9239 1.9904 11.9239 2.24611V3.19222C10.0574 3.45551 8.34929 4.38515 7.11475 5.80951C5.88022 7.23387 5.20267 9.05677 5.2072 10.9417V14.5094C5.11675 15.7208 4.78527 16.9018 4.2322 17.9833C3.73451 18.765 3.13457 19.4767 2.44831 20.0994C2.37128 20.1671 2.30953 20.2504 2.26719 20.3438C2.22485 20.4372 2.20289 20.5386 2.20276 20.6411V21.6233C2.20276 21.8149 2.27885 21.9986 2.41429 22.134C2.54974 22.2695 2.73344 22.3456 2.92498 22.3456H23.0028C23.1943 22.3456 23.378 22.2695 23.5135 22.134C23.6489 21.9986 23.725 21.8149 23.725 21.6233V20.6411C23.7249 20.5386 23.7029 20.4372 23.6606 20.3438C23.6182 20.2504 23.5565 20.1671 23.4794 20.0994V20.0994Z" fill="white"/>
<path d="M21.6667 7.94444C23.661 7.94444 25.2778 6.32769 25.2778 4.33333C25.2778 2.33897 23.661 0.722221 21.6667 0.722221C19.6723 0.722221 18.0555 2.33897 18.0555 4.33333C18.0555 6.32769 19.6723 7.94444 21.6667 7.94444Z" fill="#FF6D6D"/>
</g>
<defs>
<clipPath id="clip0_191_2574">
<rect width="26" height="26" fill="white"/>
</clipPath>
</defs>
</svg>
