<svg width="29" height="29" viewBox="0 0 29 29" fill="none" xmlns="http://www.w3.org/2000/svg">
<g clip-path="url(#clip0_212_2247)">
<path d="M29 21.3294C27.5647 23.8593 25.3644 25.9317 22.6775 27.2847C19.9905 28.6378 16.9376 29.2106 13.9047 28.9308C10.8719 28.651 7.99523 27.5311 5.63865 25.7128C3.2821 23.8945 1.55142 21.4593 0.665489 18.7154C-0.22045 15.9714 -0.221857 13.0418 0.661446 10.2971C1.54475 7.55244 3.27308 5.11584 5.62792 3.2955C7.98269 1.47516 10.8583 0.352839 13.8909 0.0704527C16.9234 -0.211934 19.9769 0.358298 22.6652 1.70904L20.8406 4.92496C18.8282 3.91382 16.5424 3.48696 14.2723 3.69834C12.0022 3.90973 9.84961 4.74988 8.08683 6.11254C6.32404 7.47519 5.03027 9.29919 4.36905 11.3538C3.70783 13.4084 3.70888 15.6015 4.37208 17.6555C5.03527 19.7096 6.33084 21.5325 8.0949 22.8936C9.85897 24.2548 12.0123 25.0931 14.2827 25.3026C16.553 25.512 18.8384 25.0832 20.8498 24.0704C22.8612 23.0575 24.5082 21.5061 25.5827 19.6124L29 21.3294Z" fill="white"/>
<path d="M16.2052 22C20.4601 22 23.9093 18.7541 23.9093 14.75C23.9093 10.7459 20.4601 7.5 16.2052 7.5C11.9504 7.5 8.50122 10.7459 8.50122 14.75C8.50122 18.7541 11.9504 22 16.2052 22Z" fill="#FF2B78"/>
</g>
<defs>
<clipPath id="clip0_212_2247">
<rect width="29" height="29" fill="white"/>
</clipPath>
</defs>
</svg>
