<svg width="18" height="18" viewBox="0 0 18 18" fill="none" xmlns="http://www.w3.org/2000/svg">
<g clip-path="url(#clip0_191_2247)">
<path d="M16.1336 6.27637C15.7432 5.74425 15.1988 5.121 14.6014 4.52362C14.004 3.92625 13.3807 3.38175 12.8486 2.99137C11.9419 2.3265 11.502 2.25 11.25 2.25H4.78125C4.00612 2.25 3.375 2.88112 3.375 3.65625V16.5938C3.375 17.3689 4.00612 18 4.78125 18H15.4688C16.2439 18 16.875 17.3689 16.875 16.5938V7.875C16.875 7.623 16.7985 7.18312 16.1336 6.27637ZM13.8049 5.32013C14.3449 5.86013 14.7679 6.34613 15.0806 6.75H12.3739V4.04438C12.7777 4.35713 13.2649 4.78013 13.8038 5.32013H13.8049ZM15.75 16.5938C15.75 16.7468 15.6218 16.875 15.4688 16.875H4.78125C4.70693 16.8741 4.6359 16.8442 4.58334 16.7917C4.53079 16.7391 4.50088 16.6681 4.5 16.5938V3.65625C4.5 3.50437 4.62825 3.375 4.78125 3.375H11.25V7.3125C11.25 7.46168 11.3093 7.60476 11.4148 7.71025C11.5202 7.81574 11.6633 7.875 11.8125 7.875H15.75V16.5938Z" fill="white"/>
<path d="M10.5986 0.741375C9.69187 0.0765 9.252 0 9 0H2.53125C1.75612 0 1.125 0.631125 1.125 1.40625V14.3438C1.125 15.0232 1.60875 15.5914 2.25 15.7219V1.40625C2.25 1.25437 2.37937 1.125 2.53125 1.125H11.0891C10.9287 0.992803 10.7647 0.864883 10.5975 0.741375H10.5986Z" fill="white"/>
</g>
<defs>
<clipPath id="clip0_191_2247">
<rect width="18" height="18" fill="white"/>
</clipPath>
</defs>
</svg>
