<svg width="16" height="16" viewBox="0 0 16 16" fill="none" xmlns="http://www.w3.org/2000/svg">
<path d="M5.03051 7.86962L2.15017 4.88646C1.01624 6.16672 0.586537 7.4493 0.579077 7.47557L0.5 7.71973L0.578331 7.96388C0.594743 8.01565 2.30609 13.1282 8.00037 13.1282C8.69341 13.1282 9.32454 13.0494 9.90419 12.9173L7.85565 10.7956C7.11805 10.7581 6.42029 10.4379 5.89811 9.89703C5.37592 9.35621 5.06667 8.63354 5.03051 7.86962V7.86962ZM8.00037 2.31126C6.61653 2.31126 5.48259 2.6234 4.5374 3.08235L1.77344 0.219727L0.718581 1.31224L14.1467 15.2197L15.2016 14.1272L12.7413 11.5791C14.7092 10.0701 15.4112 7.99633 15.4217 7.96388L15.5 7.71973L15.4217 7.47557C15.4053 7.42381 13.6947 2.31126 8.00037 2.31126ZM9.42227 8.14159C9.56177 7.61851 9.44315 7.02976 9.05523 6.62722C8.6673 6.22467 8.0981 6.10259 7.59305 6.24708L6.46807 5.08194C6.92908 4.78832 7.45918 4.63169 8.00037 4.62917C9.64607 4.62917 10.9844 6.01529 10.9844 7.71973C10.9822 8.28014 10.8307 8.82904 10.5465 9.30595L9.42227 8.14159V8.14159Z" fill="#9E9E9E"/>
</svg>
