<svg width="18" height="18" viewBox="0 0 18 18" fill="none" xmlns="http://www.w3.org/2000/svg">
<path d="M9 2.25001C10.3612 2.25003 11.6905 2.66157 12.8136 3.43062C13.9367 4.19967 14.801 5.29029 15.2932 6.55935C15.7854 7.82842 15.8823 9.21663 15.5714 10.5418C15.2605 11.867 14.5562 13.0672 13.551 13.985C12.5458 14.9027 11.2866 15.4951 9.93865 15.6844C8.59072 15.8737 7.21704 15.6511 5.99791 15.0457C4.77877 14.4404 3.77113 13.4806 3.10723 12.2923C2.44333 11.104 2.15419 9.74279 2.27775 8.38726C2.28662 8.28916 2.31472 8.19377 2.36045 8.10653C2.40618 8.01929 2.46864 7.94191 2.54427 7.87882C2.61991 7.81572 2.70723 7.76814 2.80125 7.73879C2.89527 7.70944 2.99416 7.69889 3.09225 7.70776C3.19035 7.71662 3.28574 7.74472 3.37298 7.79045C3.46022 7.83618 3.53759 7.89864 3.60069 7.97428C3.66379 8.04991 3.71137 8.13723 3.74072 8.23125C3.77007 8.32528 3.78062 8.42416 3.77175 8.52226C3.69964 9.28927 3.79814 10.0627 4.0602 10.7872C4.32226 11.5116 4.74138 12.1691 5.2875 12.7125C5.56875 12.9938 5.8815 13.2428 6.219 13.4535C7.05489 13.9753 8.02076 14.2514 9.00615 14.2501C9.99154 14.2488 10.9567 13.9702 11.7912 13.4461C12.6257 12.9221 13.2958 12.1738 13.725 11.2868C14.1542 10.3997 14.3251 9.40984 14.2182 8.43026C14.1112 7.45069 13.7308 6.52099 13.1203 5.74749C12.5098 4.97399 11.6939 4.38792 10.766 4.0563C9.83807 3.72468 8.83555 3.66091 7.87309 3.87227C6.91063 4.08363 6.02709 4.5616 5.3235 5.25151L6.3735 5.25226C6.56576 5.25094 6.75117 5.32351 6.89146 5.45497C7.03175 5.58643 7.11619 5.76675 7.12736 5.95868C7.13853 6.15061 7.07556 6.33951 6.95146 6.48635C6.82736 6.63319 6.65161 6.72677 6.4605 6.74776L6.3735 6.75226H3.372C3.1883 6.75223 3.011 6.68479 2.87372 6.56272C2.73645 6.44065 2.64875 6.27244 2.62725 6.09001L2.622 6.00226V3.00226C2.62069 2.81 2.69326 2.62459 2.82472 2.4843C2.95618 2.34401 3.13649 2.25956 3.32843 2.2484C3.52036 2.23723 3.70925 2.3002 3.85609 2.4243C4.00294 2.5484 4.09651 2.72415 4.1175 2.91526L4.122 3.00301V4.33351C4.7518 3.67422 5.50886 3.14963 6.34733 2.7915C7.18581 2.43337 8.08825 2.24915 9 2.25001V2.25001ZM8.4375 5.25001C8.57343 5.25001 8.70476 5.29924 8.8072 5.38858C8.90964 5.47792 8.97627 5.60134 8.99475 5.73601L9 5.81251V9.00001H10.6875C10.83 9.00005 10.9672 9.05419 11.0713 9.15149C11.1755 9.24878 11.2388 9.38198 11.2485 9.52417C11.2582 9.66635 11.2136 9.80693 11.1237 9.91748C11.0337 10.028 10.9052 10.1003 10.764 10.1198L10.6875 10.125H8.4375C8.30157 10.125 8.17025 10.0758 8.0678 9.98643C7.96536 9.89709 7.89874 9.77367 7.88025 9.63901L7.875 9.56251V5.81251C7.875 5.66332 7.93427 5.52025 8.03976 5.41476C8.14524 5.30927 8.28832 5.25001 8.4375 5.25001V5.25001Z" fill="white"/>
</svg>
