<svg width="28" height="29" viewBox="0 0 28 29" fill="none" xmlns="http://www.w3.org/2000/svg">
<g clip-path="url(#clip0_191_2257)">
<path d="M27.6279 21.3294C26.2605 23.8593 24.1643 25.9317 21.6045 27.2847C19.0447 28.6378 16.1362 29.2106 13.2468 28.9308C10.3575 28.651 7.61694 27.5311 5.37186 25.7128C3.12681 23.8945 1.47802 21.4593 0.634002 18.7154C-0.210019 15.9714 -0.21136 13.0418 0.63015 10.2971C1.47166 7.55244 3.11822 5.11584 5.36164 3.2955C7.60499 1.47516 10.3445 0.352839 13.2336 0.0704527C16.1227 -0.211934 19.0317 0.358298 21.5928 1.70904L19.8545 4.92496C17.9374 3.91382 15.7597 3.48696 13.597 3.69834C11.4343 3.90973 9.38358 4.74988 7.7042 6.11254C6.02482 7.47519 4.79227 9.29919 4.16233 11.3538C3.5324 13.4084 3.5334 15.6015 4.16522 17.6555C4.79703 19.7096 6.0313 21.5325 7.7119 22.8936C9.39249 24.2548 11.444 25.0931 13.6069 25.3026C15.7698 25.512 17.9471 25.0832 19.8633 24.0704C21.7795 23.0575 23.3486 21.5061 24.3723 19.6124L27.6279 21.3294Z" fill="white"/>
<path d="M15.4383 22C19.4918 22 22.7778 18.7541 22.7778 14.75C22.7778 10.7459 19.4918 7.5 15.4383 7.5C11.3848 7.5 8.09875 10.7459 8.09875 14.75C8.09875 18.7541 11.3848 22 15.4383 22Z" fill="#FF2B78"/>
</g>
<defs>
<clipPath id="clip0_191_2257">
<rect width="27.6279" height="29" fill="white"/>
</clipPath>
</defs>
</svg>
