<svg width="18" height="18" viewBox="0 0 18 18" fill="none" xmlns="http://www.w3.org/2000/svg">
<path d="M16.2563 10.9986L15.1049 10.0143C15.1594 9.68029 15.1875 9.33927 15.1875 8.99825C15.1875 8.65724 15.1594 8.31622 15.1049 7.98224L16.2563 6.99786C16.3431 6.92352 16.4053 6.8245 16.4345 6.71397C16.4637 6.60345 16.4585 6.48665 16.4197 6.37911L16.4039 6.33341C16.0869 5.44752 15.6123 4.62629 15.0029 3.90939L14.9713 3.87247C14.8974 3.78555 14.7989 3.72307 14.6887 3.69326C14.5786 3.66345 14.462 3.66771 14.3543 3.70548L12.9252 4.21349C12.3979 3.78107 11.809 3.44005 11.1727 3.20099L10.8967 1.70685C10.8759 1.59442 10.8213 1.49099 10.7403 1.4103C10.6593 1.32961 10.5557 1.27548 10.4432 1.25509L10.3957 1.2463C9.47989 1.08107 8.51661 1.08107 7.60079 1.2463L7.55333 1.25509C7.44082 1.27548 7.33718 1.32961 7.25618 1.4103C7.17517 1.49099 7.12064 1.59442 7.09981 1.70685L6.82208 3.20802C6.19083 3.44713 5.60298 3.78797 5.08185 4.217L3.6422 3.70548C3.53456 3.66741 3.41788 3.663 3.30768 3.69282C3.19747 3.72265 3.09895 3.78531 3.02521 3.87247L2.99356 3.90939C2.38492 4.62679 1.91036 5.44789 1.59259 6.33341L1.57677 6.37911C1.49767 6.59884 1.5627 6.84493 1.74024 6.99786L2.90567 7.99279C2.85118 8.32325 2.82481 8.66075 2.82481 8.9965C2.82481 9.334 2.85118 9.6715 2.90567 10.0002L1.74024 10.9951C1.6534 11.0695 1.59125 11.1685 1.56204 11.279C1.53284 11.3895 1.53798 11.5063 1.57677 11.6139L1.59259 11.6596C1.91075 12.5455 2.38185 13.3629 2.99356 14.0836L3.02521 14.1205C3.09913 14.2074 3.19765 14.2699 3.30779 14.2997C3.41794 14.3295 3.53453 14.3253 3.6422 14.2875L5.08185 13.776C5.60567 14.2067 6.19103 14.5477 6.82208 14.785L7.09981 16.2861C7.12064 16.3986 7.17517 16.502 7.25618 16.5827C7.33718 16.6634 7.44082 16.7175 7.55333 16.7379L7.60079 16.7467C8.52503 16.9128 9.47148 16.9128 10.3957 16.7467L10.4432 16.7379C10.5557 16.7175 10.6593 16.6634 10.7403 16.5827C10.8213 16.502 10.8759 16.3986 10.8967 16.2861L11.1727 14.792C11.8087 14.5536 12.4009 14.2114 12.9252 13.7795L14.3543 14.2875C14.4619 14.3256 14.5786 14.33 14.6888 14.3002C14.799 14.2703 14.8976 14.2077 14.9713 14.1205L15.0029 14.0836C15.6147 13.3611 16.0858 12.5455 16.4039 11.6596L16.4197 11.6139C16.4988 11.3977 16.4338 11.1516 16.2563 10.9986V10.9986ZM13.8568 8.18966C13.9008 8.45509 13.9236 8.72755 13.9236 9.00001C13.9236 9.27247 13.9008 9.54493 13.8568 9.81036L13.7408 10.5152L15.0539 11.6385C14.8549 12.0971 14.6036 12.5312 14.3051 12.9322L12.6738 12.3539L12.1219 12.8074C11.7018 13.152 11.2342 13.4227 10.7279 13.6125L10.0582 13.8639L9.74356 15.569C9.24711 15.6252 8.74588 15.6252 8.24942 15.569L7.93478 13.8604L7.27032 13.6055C6.76935 13.4156 6.30353 13.1449 5.88692 12.8022L5.33497 12.3469L3.69317 12.9305C3.39435 12.5279 3.14474 12.0938 2.94435 11.6367L4.27149 10.5029L4.15724 9.79982C4.11505 9.5379 4.0922 9.2672 4.0922 9.00001C4.0922 8.73107 4.11329 8.46212 4.15724 8.20021L4.27149 7.49708L2.94435 6.36329C3.14298 5.9045 3.39435 5.47208 3.69317 5.06954L5.33497 5.65314L5.88692 5.19786C6.30353 4.85509 6.76935 4.58439 7.27032 4.39454L7.93653 4.14318L8.25118 2.43458C8.74513 2.37833 9.24962 2.37833 9.74532 2.43458L10.06 4.13966L10.7297 4.39103C11.2342 4.58087 11.7035 4.85157 12.1236 5.19611L12.6756 5.64962L14.3068 5.0713C14.6057 5.47384 14.8553 5.90802 15.0557 6.36505L13.7426 7.48829L13.8568 8.18966ZM9.00001 5.73048C7.29142 5.73048 5.90626 7.11564 5.90626 8.82423C5.90626 10.5328 7.29142 11.918 9.00001 11.918C10.7086 11.918 12.0938 10.5328 12.0938 8.82423C12.0938 7.11564 10.7086 5.73048 9.00001 5.73048ZM10.3922 10.2164C10.2096 10.3995 9.9926 10.5448 9.75367 10.6437C9.51475 10.7427 9.25861 10.7934 9.00001 10.793C8.47442 10.793 7.98048 10.5873 7.60782 10.2164C7.4247 10.0338 7.27949 9.81682 7.18054 9.57789C7.08159 9.33897 7.03086 9.08283 7.03126 8.82423C7.03126 8.29864 7.23692 7.8047 7.60782 7.43204C7.98048 7.05939 8.47442 6.85548 9.00001 6.85548C9.5256 6.85548 10.0195 7.05939 10.3922 7.43204C10.5753 7.61464 10.7205 7.83165 10.8195 8.07057C10.9184 8.3095 10.9692 8.56563 10.9688 8.82423C10.9688 9.34982 10.7631 9.84376 10.3922 10.2164Z" fill="white"/>
</svg>
