<svg width="18" height="19" viewBox="0 0 18 19" fill="none" xmlns="http://www.w3.org/2000/svg">
<g clip-path="url(#clip0_191_2360)">
<path d="M9.89297 12.1982C9.74302 12.1985 9.59771 12.1358 9.48226 12.0208L5.63185 8.16568C5.5008 8.0348 5.41839 7.84674 5.40274 7.64286C5.38709 7.43898 5.4395 7.23598 5.54843 7.07852C5.65735 6.92107 5.81388 6.82205 5.98357 6.80325C6.15326 6.78445 6.32222 6.84742 6.45327 6.97829L9.89297 10.4325L13.3327 7.10166C13.3983 7.03761 13.4738 6.98978 13.5549 6.96092C13.636 6.93206 13.721 6.92273 13.8051 6.93348C13.8892 6.94423 13.9707 6.97484 14.0449 7.02355C14.1191 7.07225 14.1845 7.1381 14.2375 7.21731C14.2963 7.29659 14.3408 7.38959 14.3682 7.4905C14.3957 7.59141 14.4055 7.69804 14.3971 7.80372C14.3887 7.9094 14.3622 8.01185 14.3192 8.10465C14.2763 8.19745 14.2179 8.2786 14.1477 8.34301L10.2973 12.0671C10.1785 12.1639 10.0361 12.21 9.89297 12.1982V12.1982Z" fill="#9E9E9E"/>
</g>
<defs>
<clipPath id="clip0_191_2360">
<rect width="18" height="18" fill="white" transform="translate(0 0.5)"/>
</clipPath>
</defs>
</svg>
