<svg width="18" height="20" viewBox="0 0 18 20" fill="none" xmlns="http://www.w3.org/2000/svg">
<path d="M9.89284 12.998C9.7429 12.9984 9.59759 12.9287 9.48213 12.8009L5.63173 8.51743C5.50068 8.37202 5.41826 8.16306 5.40262 7.93652C5.38697 7.70999 5.43938 7.48444 5.5483 7.30948C5.65723 7.13453 5.81376 7.02451 5.98345 7.00363C6.15314 6.98274 6.3221 7.0527 6.45315 7.19811L9.89284 11.0361L13.3325 7.33519C13.3982 7.26402 13.4737 7.21088 13.5548 7.17881C13.6359 7.14675 13.7209 7.13638 13.805 7.14833C13.8891 7.16027 13.9705 7.19428 14.0448 7.2484C14.119 7.30252 14.1844 7.37568 14.2374 7.46369C14.2962 7.55178 14.3407 7.65512 14.3681 7.76724C14.3956 7.87936 14.4054 7.99784 14.397 8.11526C14.3885 8.23268 14.362 8.34652 14.3191 8.44963C14.2762 8.55273 14.2178 8.6429 14.1475 8.71447L10.2971 12.8523C10.1784 12.9599 10.036 13.0111 9.89284 12.998V12.998Z" fill="#9E9E9E"/>
</svg>
