<svg width="18" height="18" viewBox="0 0 18 18" fill="none" xmlns="http://www.w3.org/2000/svg">
<path d="M15.0908 13.4227C14.7592 12.6372 14.278 11.9238 13.674 11.3221C13.0719 10.7186 12.3585 10.2375 11.5735 9.90527C11.5664 9.90176 11.5594 9.9 11.5524 9.89648C12.6475 9.10547 13.3594 7.81699 13.3594 6.36328C13.3594 3.95508 11.4082 2.00391 9.00001 2.00391C6.59181 2.00391 4.64064 3.95508 4.64064 6.36328C4.64064 7.81699 5.35255 9.10547 6.44767 9.89824C6.44064 9.90176 6.43361 9.90352 6.42658 9.90703C5.63908 10.2393 4.93244 10.7156 4.32599 11.3238C3.72255 11.926 3.24143 12.6393 2.90919 13.4244C2.58281 14.193 2.40678 15.0171 2.39064 15.852C2.39017 15.8707 2.39346 15.8894 2.40032 15.9068C2.40717 15.9243 2.41746 15.9402 2.43056 15.9537C2.44367 15.9671 2.45933 15.9778 2.47662 15.9851C2.49392 15.9923 2.5125 15.9961 2.53126 15.9961H3.58595C3.66329 15.9961 3.72482 15.9346 3.72658 15.859C3.76173 14.502 4.30665 13.2311 5.26994 12.2678C6.26661 11.2711 7.59025 10.7227 9.00001 10.7227C10.4098 10.7227 11.7334 11.2711 12.7301 12.2678C13.6934 13.2311 14.2383 14.502 14.2735 15.859C14.2752 15.9363 14.3367 15.9961 14.4141 15.9961H15.4688C15.4875 15.9961 15.5061 15.9923 15.5234 15.9851C15.5407 15.9778 15.5564 15.9671 15.5695 15.9537C15.5826 15.9402 15.5929 15.9243 15.5997 15.9068C15.6066 15.8894 15.6099 15.8707 15.6094 15.852C15.5918 15.0117 15.4178 14.1943 15.0908 13.4227V13.4227ZM9.00001 9.38672C8.19318 9.38672 7.4338 9.07207 6.86251 8.50078C6.29122 7.92949 5.97658 7.17012 5.97658 6.36328C5.97658 5.55645 6.29122 4.79707 6.86251 4.22578C7.4338 3.65449 8.19318 3.33984 9.00001 3.33984C9.80685 3.33984 10.5662 3.65449 11.1375 4.22578C11.7088 4.79707 12.0235 5.55645 12.0235 6.36328C12.0235 7.17012 11.7088 7.92949 11.1375 8.50078C10.5662 9.07207 9.80685 9.38672 9.00001 9.38672Z" fill="white"/>
</svg>
