<svg width="8" height="5" viewBox="0 0 8 5" fill="none" xmlns="http://www.w3.org/2000/svg">
<path d="M3.74412 4.74848C3.61917 4.74877 3.49807 4.69649 3.40186 4.6007L0.19319 1.38807C0.0839793 1.27901 0.0153007 1.12229 0.00226291 0.952393C-0.0107748 0.782492 0.0328962 0.613328 0.123669 0.482113C0.214441 0.350899 0.34488 0.268383 0.486289 0.252719C0.627699 0.237054 0.768495 0.289524 0.877706 0.398585L3.74412 3.2771L6.61053 0.50139C6.66523 0.448018 6.72817 0.408161 6.79574 0.38411C6.8633 0.360059 6.93415 0.352288 7.00422 0.361245C7.07429 0.370201 7.1422 0.395707 7.20404 0.436298C7.26588 0.476889 7.32044 0.531764 7.36457 0.597768C7.41354 0.663833 7.45063 0.741339 7.47352 0.825428C7.4964 0.909518 7.50459 0.99838 7.49756 1.08645C7.49053 1.17451 7.46844 1.25989 7.43267 1.33722C7.3969 1.41455 7.34823 1.48218 7.2897 1.53585L4.08103 4.63925C3.98205 4.7199 3.86343 4.75836 3.74412 4.74848V4.74848Z" fill="white"/>
</svg>
