<svg width="20" height="21" viewBox="0 0 20 21" fill="none" xmlns="http://www.w3.org/2000/svg">
<path d="M19.1395 5.15074C19.0526 5.06306 18.9492 4.99353 18.8352 4.94619C18.7212 4.89885 18.5989 4.87465 18.4755 4.875H17.8125V3.3125C17.8122 3.06395 17.7134 2.82565 17.5376 2.6499C17.3618 2.47414 17.1236 2.37528 16.875 2.375H3.38387C2.65217 2.37501 1.95045 2.66568 1.43306 3.18306C0.915679 3.70045 0.62501 4.40217 0.625 5.13387V15.8661C0.62501 16.5978 0.915679 17.2995 1.43306 17.8169C1.95045 18.3343 2.65217 18.625 3.38387 18.625H18.4386C18.6865 18.6245 18.9242 18.526 19.0999 18.3509C19.2755 18.1759 19.3748 17.9385 19.3761 17.6905L19.4129 5.8157C19.4137 5.69228 19.3899 5.56993 19.343 5.45577C19.2961 5.34161 19.2269 5.23793 19.1395 5.15074V5.15074ZM18.1271 17.375H3.38387C2.98369 17.375 2.5999 17.216 2.31694 16.9331C2.03397 16.6501 1.875 16.2663 1.875 15.8661V5.13387C1.875 4.73369 2.03397 4.3499 2.31694 4.06694C2.5999 3.78397 2.98369 3.625 3.38387 3.625H16.5625V4.875H3.4375V6.125H18.162L18.1271 17.375Z" fill="white"/>
<path d="M15.3125 10.8125H16.5625V12.0625H15.3125V10.8125Z" fill="white"/>
</svg>
