<svg width="202" height="106" viewBox="0 0 202 106" fill="none" xmlns="http://www.w3.org/2000/svg">
<path d="M197 101C199.761 101 202.013 98.76 201.876 96.002C201.297 84.3061 198.687 72.7868 194.151 61.9632C188.97 49.6006 181.381 38.393 171.824 28.9936C162.268 19.5941 150.936 12.191 138.49 7.21553C126.043 2.2401 112.731 -0.20803 99.3283 0.0138403C85.9259 0.235711 72.7018 3.12314 60.4267 8.50783C48.1516 13.8925 37.0712 21.6667 27.8312 31.3773C18.5913 41.0879 11.3766 52.5406 6.60792 65.0679C2.43281 76.0357 0.205676 87.6351 0.0136595 99.3438C-0.0316203 102.105 2.29278 104.269 5.05269 104.178L6.51405 104.129C9.27396 104.038 11.4226 101.725 11.4854 98.9643C11.717 88.7772 13.6863 78.6916 17.3202 69.1457C21.5477 58.0401 27.9436 47.8871 36.1349 39.2786C44.3263 30.67 54.1492 23.7781 65.0313 19.0045C75.9133 14.2309 87.6367 11.6711 99.518 11.4744C111.399 11.2777 123.201 13.448 134.235 17.8588C145.269 22.2696 155.315 28.8326 163.787 37.1654C172.259 45.4981 178.987 55.4338 183.58 66.3933C187.528 75.8137 189.83 85.8286 190.398 96.0025C190.552 98.7596 192.776 101 195.538 101H197Z" fill="#FFECF3"/>
<path d="M178.383 44.186C180.609 42.5517 181.098 39.4134 179.356 37.271C166.777 21.8045 149.873 10.3753 130.75 4.48101C110.032 -1.90516 87.8081 -1.45495 67.3651 5.7651C46.9221 12.9851 29.3449 26.5918 17.2324 44.5732C6.05294 61.1696 0.0763662 80.6797 0.000767262 100.616C-0.00970426 103.377 2.34179 105.512 5.10033 105.386L6.56096 105.319C9.3195 105.193 11.4388 102.853 11.4668 100.092C11.6438 82.6158 16.9343 65.5324 26.739 50.9769C37.4769 35.0361 53.0592 22.9737 71.1822 16.573C89.3052 10.1723 109.007 9.77321 127.374 15.4346C144.145 20.6041 158.991 30.5758 170.104 44.0644C171.86 46.1957 174.979 46.6856 177.205 45.0513L178.383 44.186Z" fill="#FF2B78"/>
</svg>
